<svg xmlns="http://www.w3.org/2000/svg" xmlns:xlink="http://www.w3.org/1999/xlink" width="877" zoomAndPan="magnify" viewBox="0 0 657.75 165.000002" height="220" preserveAspectRatio="xMidYMid meet" version="1.0"><defs><g/><clipPath id="b8ba6e1906"><path d="M 19.003906 11.503906 L 115.171875 11.503906 L 115.171875 150.910156 L 19.003906 150.910156 Z M 19.003906 11.503906 " clip-rule="nonzero"/></clipPath><clipPath id="f52bba561a"><path d="M 1.855469 0 L 655.644531 0 L 655.644531 164.007812 L 1.855469 164.007812 Z M 1.855469 0 " clip-rule="nonzero"/></clipPath></defs><g clip-path="url(#b8ba6e1906)"><path fill="#ffffff" d="M 113.917969 142.238281 L 109.554688 142.238281 L 109.554688 137.914062 C 109.554688 137.304688 109.0625 136.8125 108.453125 136.8125 L 106.785156 136.8125 L 106.785156 133.835938 C 106.785156 133.226562 106.292969 132.734375 105.679688 132.734375 L 103.351562 132.734375 L 103.351562 118.1875 L 106.359375 115.066406 L 106.371094 115.054688 C 106.414062 115.011719 106.429688 114.957031 106.464844 114.910156 C 106.511719 114.84375 106.566406 114.78125 106.597656 114.703125 C 106.707031 114.4375 106.707031 114.136719 106.597656 113.871094 C 106.566406 113.792969 106.511719 113.734375 106.464844 113.664062 C 106.429688 113.617188 106.414062 113.566406 106.371094 113.523438 L 106.359375 113.507812 L 103.328125 110.363281 L 103.328125 103.847656 C 103.328125 103.238281 102.832031 102.746094 102.222656 102.746094 L 98.902344 102.746094 L 98.902344 94.066406 L 99.441406 94.066406 C 100.050781 94.066406 100.542969 93.574219 100.542969 92.964844 L 100.542969 88.574219 C 100.542969 87.964844 100.050781 87.46875 99.441406 87.46875 L 98.183594 87.46875 C 98.234375 86.425781 98.1875 85.015625 97.675781 84.140625 C 97.628906 84.054688 97.550781 83.972656 97.492188 83.890625 C 97.46875 83.859375 97.453125 83.820312 97.421875 83.792969 C 97.144531 83.410156 96.816406 83.039062 96.386719 82.703125 C 96.09375 82.472656 95.917969 82.132812 95.886719 81.742188 C 95.835938 81.03125 95.640625 80.4375 95.308594 79.976562 C 94.964844 79.496094 94.449219 79.132812 93.769531 78.898438 C 93.414062 78.773438 93.160156 78.539062 93.070312 78.253906 C 92.289062 75.753906 91.097656 75.125 90.179688 75.066406 L 90.179688 66.214844 C 90.179688 65.863281 90.011719 65.53125 89.726562 65.324219 L 87.429688 63.652344 L 87.429688 62.207031 C 87.429688 61.597656 86.9375 61.105469 86.328125 61.105469 L 85.28125 61.105469 C 85.320312 60.148438 85.261719 58.902344 84.800781 58.109375 C 84.75 58.019531 84.667969 57.933594 84.609375 57.847656 C 84.589844 57.824219 84.578125 57.796875 84.558594 57.777344 C 84.300781 57.421875 83.996094 57.082031 83.601562 56.773438 C 83.355469 56.582031 83.207031 56.292969 83.179688 55.964844 C 83.15625 55.605469 83.082031 55.28125 82.976562 54.984375 C 83.136719 47.875 80.824219 42.003906 76.113281 37.519531 L 76.113281 34.289062 C 76.113281 33.679688 75.621094 33.183594 75.011719 33.183594 L 74.121094 33.183594 C 73.941406 31.222656 73.269531 29.558594 72.089844 28.128906 L 73.042969 24.820312 C 73.136719 24.488281 73.070312 24.128906 72.863281 23.855469 C 72.65625 23.578125 72.328125 23.414062 71.984375 23.414062 L 71.546875 23.414062 L 70.988281 21.066406 C 72.164062 17.335938 71.015625 14.054688 67.691406 11.804688 C 67.316406 11.554688 66.828125 11.554688 66.453125 11.804688 C 63.132812 14.054688 61.984375 17.335938 63.15625 21.066406 L 62.601562 23.414062 L 62.164062 23.414062 C 61.816406 23.414062 61.492188 23.578125 61.28125 23.855469 C 61.074219 24.128906 61.007812 24.488281 61.105469 24.820312 L 62.058594 28.128906 C 60.878906 29.558594 60.207031 31.222656 60.027344 33.183594 L 59.132812 33.183594 C 58.523438 33.183594 58.03125 33.679688 58.03125 34.289062 L 58.03125 37.519531 C 53.320312 42.003906 51.007812 47.875 51.171875 54.988281 C 51.066406 55.28125 50.992188 55.605469 50.964844 55.964844 C 50.941406 56.296875 50.792969 56.582031 50.546875 56.773438 C 50.152344 57.082031 49.847656 57.421875 49.589844 57.777344 C 49.570312 57.796875 49.558594 57.824219 49.539062 57.84375 C 49.476562 57.933594 49.398438 58.019531 49.34375 58.113281 C 48.882812 58.902344 48.828125 60.152344 48.863281 61.105469 L 47.820312 61.105469 C 47.207031 61.105469 46.714844 61.597656 46.714844 62.207031 L 46.714844 63.652344 L 44.417969 65.324219 C 44.132812 65.53125 43.964844 65.863281 43.964844 66.21875 L 43.964844 75.066406 C 43.046875 75.128906 41.859375 75.753906 41.074219 78.257812 C 40.984375 78.539062 40.730469 78.773438 40.375 78.898438 C 39.699219 79.132812 39.179688 79.496094 38.839844 79.972656 C 38.503906 80.4375 38.308594 81.03125 38.257812 81.742188 C 38.230469 82.132812 38.050781 82.476562 37.757812 82.707031 C 37.328125 83.042969 37 83.410156 36.722656 83.792969 C 36.691406 83.824219 36.675781 83.859375 36.652344 83.890625 C 36.59375 83.976562 36.519531 84.054688 36.46875 84.140625 C 35.960938 85.015625 35.914062 86.425781 35.964844 87.472656 L 34.707031 87.472656 C 34.097656 87.472656 33.601562 87.964844 33.601562 88.574219 L 33.601562 92.964844 C 33.601562 93.574219 34.097656 94.066406 34.707031 94.066406 L 35.242188 94.066406 L 35.242188 102.746094 L 31.921875 102.746094 C 31.3125 102.746094 30.820312 103.238281 30.820312 103.851562 L 30.820312 110.363281 L 27.789062 113.507812 L 27.773438 113.523438 C 27.730469 113.566406 27.714844 113.621094 27.679688 113.667969 C 27.636719 113.734375 27.582031 113.796875 27.550781 113.871094 C 27.441406 114.140625 27.441406 114.4375 27.550781 114.707031 C 27.578125 114.785156 27.632812 114.84375 27.679688 114.910156 C 27.714844 114.957031 27.734375 115.011719 27.773438 115.054688 L 27.789062 115.070312 L 30.796875 118.1875 L 30.796875 132.734375 L 28.464844 132.734375 C 27.855469 132.734375 27.363281 133.230469 27.363281 133.839844 L 27.363281 136.816406 L 25.691406 136.816406 C 25.082031 136.816406 24.589844 137.308594 24.589844 137.917969 L 24.589844 142.242188 L 20.226562 142.242188 C 19.617188 142.242188 19.125 142.734375 19.125 143.34375 L 19.125 149.480469 C 19.125 150.089844 19.617188 150.585938 20.226562 150.585938 L 113.917969 150.585938 C 114.527344 150.585938 115.023438 150.089844 115.023438 149.480469 L 115.023438 143.34375 C 115.023438 142.734375 114.527344 142.238281 113.917969 142.238281 Z M 88.113281 132.734375 L 88.113281 124.917969 C 88.113281 124.011719 87.839844 123.167969 87.386719 122.453125 L 90.910156 122.453125 C 90.457031 123.167969 90.1875 124.011719 90.1875 124.917969 L 90.1875 132.734375 Z M 77.378906 132.734375 L 77.378906 124.917969 C 77.378906 124.011719 77.105469 123.167969 76.652344 122.453125 L 79.394531 122.453125 C 78.945312 123.167969 78.675781 124.011719 78.675781 124.917969 L 78.675781 132.734375 Z M 66.207031 132.734375 L 66.207031 124.917969 C 66.207031 124.011719 65.933594 123.167969 65.480469 122.453125 L 68.660156 122.453125 C 68.210938 123.167969 67.9375 124.011719 67.9375 124.917969 L 67.9375 132.734375 Z M 55.472656 132.734375 L 55.472656 124.917969 C 55.472656 124.011719 55.199219 123.167969 54.746094 122.453125 L 57.488281 122.453125 C 57.039062 123.167969 56.769531 124.011719 56.769531 124.917969 L 56.769531 132.734375 Z M 43.960938 132.734375 L 43.960938 124.917969 C 43.960938 124.011719 43.6875 123.167969 43.234375 122.453125 L 46.753906 122.453125 C 46.304688 123.167969 46.035156 124.011719 46.035156 124.917969 L 46.035156 132.734375 Z M 101.121094 109.703125 L 33.027344 109.703125 L 33.027344 108.429688 L 101.121094 108.429688 Z M 32.390625 111.910156 L 101.753906 111.910156 L 102.984375 113.183594 L 31.164062 113.183594 Z M 102.984375 115.390625 L 101.753906 116.664062 L 32.390625 116.664062 L 31.164062 115.390625 Z M 33 118.867188 L 101.144531 118.867188 L 101.144531 120.246094 L 33 120.246094 Z M 36.726562 124.917969 C 36.726562 123.558594 37.832031 122.453125 39.285156 122.453125 C 40.644531 122.453125 41.753906 123.558594 41.753906 124.917969 L 41.753906 132.734375 L 36.726562 132.734375 Z M 48.238281 124.917969 C 48.238281 123.558594 49.34375 122.453125 50.796875 122.453125 C 52.160156 122.453125 53.265625 123.558594 53.265625 124.917969 L 53.265625 132.734375 L 48.238281 132.734375 Z M 58.972656 124.917969 C 58.972656 123.558594 60.078125 122.453125 61.535156 122.453125 C 62.894531 122.453125 64 123.558594 64 124.917969 L 64 132.734375 L 58.972656 132.734375 Z M 70.144531 124.917969 C 70.144531 123.558594 71.253906 122.453125 72.707031 122.453125 C 74.066406 122.453125 75.171875 123.558594 75.171875 124.917969 L 75.171875 132.734375 L 70.144531 132.734375 Z M 80.878906 124.917969 C 80.878906 123.558594 81.984375 122.453125 83.441406 122.453125 C 84.800781 122.453125 85.90625 123.558594 85.90625 124.917969 L 85.90625 132.734375 L 80.878906 132.734375 Z M 92.394531 124.917969 C 92.394531 123.558594 93.5 122.453125 94.953125 122.453125 C 96.3125 122.453125 97.417969 123.558594 97.417969 124.917969 L 97.417969 132.734375 L 92.390625 132.734375 L 92.390625 124.917969 Z M 98.902344 122.449219 L 101.144531 122.449219 L 101.144531 132.730469 L 99.625 132.730469 L 99.625 124.917969 C 99.625 124.011719 99.355469 123.167969 98.902344 122.449219 Z M 96.699219 102.746094 L 95.339844 102.746094 L 95.339844 94.066406 L 96.699219 94.066406 Z M 86.910156 102.746094 L 86.910156 93.40625 L 90.019531 90.164062 L 93.132812 93.40625 L 93.132812 102.746094 Z M 83.34375 102.746094 L 83.34375 94.066406 L 84.703125 94.066406 L 84.703125 102.746094 Z M 75.957031 102.746094 L 75.957031 94.066406 L 76.492188 94.066406 C 77.101562 94.066406 77.59375 93.574219 77.59375 92.964844 L 77.59375 91.871094 L 79.5 91.871094 L 79.5 92.964844 C 79.5 93.574219 79.992188 94.066406 80.601562 94.066406 L 81.136719 94.066406 L 81.136719 102.746094 Z M 72.390625 102.746094 L 72.390625 94.066406 L 73.75 94.066406 L 73.75 102.746094 Z M 63.960938 102.746094 L 63.960938 93.40625 L 67.074219 90.164062 L 70.183594 93.40625 L 70.183594 102.746094 Z M 60.394531 102.746094 L 60.394531 94.066406 L 61.753906 94.066406 L 61.753906 102.746094 Z M 53.007812 102.746094 L 53.007812 94.066406 L 53.542969 94.066406 C 54.152344 94.066406 54.648438 93.574219 54.648438 92.964844 L 54.648438 91.871094 L 56.550781 91.871094 L 56.550781 92.964844 C 56.550781 93.574219 57.042969 94.066406 57.65625 94.066406 L 58.191406 94.066406 L 58.191406 102.746094 Z M 49.441406 102.746094 L 49.441406 94.066406 L 50.800781 94.066406 L 50.800781 102.746094 Z M 41.011719 102.746094 L 41.011719 93.40625 L 44.125 90.164062 L 47.238281 93.40625 L 47.238281 102.746094 Z M 53.832031 63.3125 L 52.097656 65.113281 L 48.921875 65.113281 L 48.921875 63.3125 Z M 59.59375 39.074219 L 74.550781 39.074219 C 78.445312 42.757812 80.484375 47.332031 80.746094 53 C 80.6875 52.929688 80.632812 52.855469 80.605469 52.761719 C 79.832031 50.289062 78.613281 49.769531 77.726562 49.769531 C 77.070312 49.769531 75.847656 50.039062 75.050781 51.855469 C 74.945312 52.097656 74.710938 52.289062 74.417969 52.375 C 74.050781 52.484375 73.710938 52.644531 73.410156 52.84375 L 60.734375 52.84375 C 60.433594 52.644531 60.097656 52.484375 59.726562 52.375 C 59.433594 52.289062 59.199219 52.097656 59.097656 51.855469 C 58.300781 50.039062 57.078125 49.769531 56.417969 49.769531 C 55.53125 49.769531 54.316406 50.289062 53.542969 52.761719 C 53.511719 52.855469 53.460938 52.929688 53.402344 52.996094 C 53.660156 47.332031 55.699219 42.757812 59.59375 39.074219 Z M 73.90625 35.390625 L 73.90625 36.867188 L 60.238281 36.867188 L 60.238281 35.390625 Z M 85.222656 63.3125 L 85.222656 65.113281 L 82.046875 65.113281 L 80.316406 63.3125 Z M 85.335938 91.859375 L 81.707031 91.859375 L 81.707031 89.675781 L 87.433594 89.675781 Z M 80.601562 87.46875 C 79.992188 87.46875 79.5 87.960938 79.5 88.570312 L 79.5 89.664062 L 77.59375 89.664062 L 77.59375 88.570312 C 77.59375 87.960938 77.101562 87.46875 76.492188 87.46875 L 75.902344 87.46875 C 75.886719 87.121094 75.859375 86.734375 75.804688 86.316406 L 81.289062 86.316406 C 81.234375 86.734375 81.203125 87.121094 81.1875 87.46875 Z M 71.757812 91.859375 L 69.660156 89.675781 L 75.390625 89.675781 L 75.390625 91.859375 Z M 62.386719 91.859375 L 58.757812 91.859375 L 58.757812 89.675781 L 64.484375 89.675781 Z M 61.1875 85.683594 L 66.496094 85.683594 C 67.109375 85.683594 67.601562 85.191406 67.601562 84.578125 C 67.601562 83.96875 67.109375 83.476562 66.496094 83.476562 L 62.894531 83.476562 C 63.179688 83.003906 63.363281 82.472656 63.40625 81.902344 C 63.4375 81.5 63.535156 81.320312 63.578125 81.265625 C 63.609375 81.214844 63.726562 81.09375 64.050781 80.980469 C 65.074219 80.621094 65.828125 79.871094 66.128906 78.914062 C 66.558594 77.546875 67.003906 77.257812 67.074219 77.257812 C 67.453125 77.257812 67.773438 77.890625 67.890625 78.160156 C 68.203125 78.875 68.777344 79.441406 69.496094 79.792969 L 68.300781 79.792969 C 67.691406 79.792969 67.199219 80.285156 67.199219 80.894531 C 67.199219 81.503906 67.691406 81.996094 68.300781 81.996094 L 71.074219 81.996094 C 71.074219 82.007812 71.078125 82.023438 71.082031 82.035156 C 71.199219 83.003906 71.726562 83.890625 72.585938 84.429688 C 72.769531 84.546875 72.941406 84.703125 73.09375 84.886719 C 73.449219 85.328125 73.632812 86.457031 73.691406 87.46875 L 61.121094 87.46875 C 61.085938 86.828125 61.097656 86.152344 61.1875 85.683594 Z M 61.371094 75.050781 L 61.371094 67.320312 L 62.769531 67.320312 L 62.769531 75.050781 Z M 53.671875 75.050781 L 53.671875 66.660156 L 56.417969 63.800781 L 59.164062 66.660156 L 59.164062 75.050781 Z M 64.972656 67.320312 L 65.015625 67.320312 C 65.628906 67.320312 66.121094 66.824219 66.121094 66.21875 L 66.121094 65.316406 L 68.023438 65.316406 L 68.023438 66.21875 C 68.023438 66.824219 68.519531 67.320312 69.128906 67.320312 L 69.171875 67.320312 L 69.171875 75.050781 L 64.972656 75.050781 Z M 72.777344 67.320312 L 72.777344 75.050781 L 71.378906 75.050781 L 71.378906 67.320312 Z M 80.472656 75.050781 L 74.984375 75.050781 L 74.984375 66.660156 L 77.726562 63.800781 L 80.472656 66.660156 Z M 82.289062 83.496094 C 82.140625 83.679688 82.011719 83.886719 81.898438 84.113281 L 75.195312 84.113281 C 75.082031 83.886719 74.953125 83.679688 74.804688 83.496094 C 74.632812 83.285156 74.441406 83.097656 74.242188 82.925781 L 82.851562 82.925781 C 82.648438 83.097656 82.460938 83.285156 82.289062 83.496094 Z M 84.496094 79.191406 C 84.171875 79.613281 83.980469 80.128906 83.898438 80.71875 L 73.195312 80.71875 C 73.113281 80.128906 72.921875 79.613281 72.597656 79.191406 C 72.136719 78.589844 71.46875 78.144531 70.667969 77.90625 C 70.316406 77.796875 70.039062 77.570312 69.910156 77.273438 C 69.90625 77.269531 69.902344 77.265625 69.902344 77.257812 L 87.191406 77.257812 C 87.191406 77.265625 87.1875 77.269531 87.183594 77.277344 C 87.054688 77.570312 86.777344 77.796875 86.425781 77.90625 C 85.625 78.144531 84.957031 78.589844 84.496094 79.191406 Z M 82.679688 75.050781 L 82.679688 67.320312 L 84.148438 67.320312 L 84.148438 75.050781 Z M 73.410156 65.113281 L 70.230469 65.113281 L 70.230469 63.3125 L 75.140625 63.3125 Z M 72.039062 55.046875 C 72.003906 55.304688 71.988281 55.570312 72.003906 55.859375 C 72.019531 56.160156 71.847656 56.464844 71.570312 56.640625 C 71.359375 56.773438 71.164062 56.933594 70.980469 57.105469 L 63.164062 57.105469 C 62.980469 56.933594 62.785156 56.773438 62.574219 56.640625 C 62.296875 56.464844 62.128906 56.160156 62.144531 55.855469 C 62.15625 55.570312 62.140625 55.304688 62.105469 55.046875 Z M 64.332031 59.3125 L 69.8125 59.3125 C 69.667969 59.941406 69.601562 60.570312 69.574219 61.105469 L 69.128906 61.105469 C 68.519531 61.105469 68.023438 61.597656 68.023438 62.207031 L 68.023438 63.109375 L 66.121094 63.109375 L 66.121094 62.207031 C 66.121094 61.597656 65.628906 61.105469 65.015625 61.105469 L 64.574219 61.105469 C 64.546875 60.570312 64.476562 59.941406 64.332031 59.3125 Z M 63.914062 63.3125 L 63.914062 65.113281 L 60.738281 65.113281 L 59.003906 63.3125 Z M 49.996094 67.320312 L 51.464844 67.320312 L 51.464844 75.050781 L 49.996094 75.050781 Z M 64.40625 77.257812 C 64.269531 77.554688 64.140625 77.878906 64.023438 78.253906 C 63.933594 78.539062 63.675781 78.773438 63.324219 78.898438 C 62.648438 79.132812 62.132812 79.496094 61.785156 79.972656 C 61.628906 80.191406 61.507812 80.445312 61.410156 80.71875 L 50.246094 80.71875 C 50.164062 80.128906 49.972656 79.613281 49.652344 79.191406 C 49.1875 78.589844 48.519531 78.144531 47.722656 77.90625 C 47.367188 77.796875 47.089844 77.570312 46.960938 77.277344 C 46.960938 77.269531 46.957031 77.265625 46.953125 77.257812 Z M 60.464844 82.925781 C 60.152344 83.199219 59.890625 83.488281 59.667969 83.792969 C 59.648438 83.8125 59.636719 83.839844 59.617188 83.863281 C 59.558594 83.949219 59.488281 84.027344 59.4375 84.113281 L 52.246094 84.113281 C 52.132812 83.886719 52.007812 83.679688 51.859375 83.496094 C 51.6875 83.285156 51.496094 83.097656 51.292969 82.925781 Z M 52.859375 86.316406 L 58.914062 86.316406 C 58.894531 86.722656 58.894531 87.113281 58.910156 87.46875 L 57.65625 87.46875 C 57.042969 87.46875 56.550781 87.960938 56.550781 88.570312 L 56.550781 89.664062 L 54.648438 89.664062 L 54.648438 88.570312 C 54.648438 87.960938 54.152344 87.46875 53.542969 87.46875 L 52.957031 87.46875 C 52.941406 87.121094 52.914062 86.734375 52.859375 86.316406 Z M 52.441406 89.675781 L 52.441406 91.859375 L 48.8125 91.859375 L 46.714844 89.675781 Z M 98.335938 91.859375 L 94.707031 91.859375 L 92.609375 89.675781 L 98.339844 89.675781 L 98.339844 91.859375 Z M 93.042969 80.980469 C 93.269531 81.058594 93.445312 81.164062 93.519531 81.265625 C 93.558594 81.324219 93.660156 81.5 93.6875 81.90625 C 93.730469 82.472656 93.917969 83.003906 94.199219 83.476562 L 90.597656 83.476562 C 89.988281 83.476562 89.492188 83.96875 89.492188 84.578125 C 89.492188 85.191406 89.988281 85.683594 90.597656 85.683594 L 95.902344 85.683594 C 95.988281 86.136719 96.007812 86.800781 95.972656 87.46875 L 83.398438 87.46875 C 83.457031 86.460938 83.640625 85.332031 84 84.886719 C 84.152344 84.703125 84.320312 84.546875 84.507812 84.433594 C 85.367188 83.890625 85.894531 83.003906 86.011719 82.035156 C 86.027344 81.964844 86.054688 81.898438 86.054688 81.824219 C 86.054688 81.792969 86.039062 81.765625 86.035156 81.738281 C 86.039062 81.65625 86.0625 81.578125 86.058594 81.496094 C 86.035156 81.0625 86.101562 80.722656 86.246094 80.53125 C 86.425781 80.296875 86.699219 80.125 87.054688 80.015625 C 88.03125 79.726562 88.8125 79.050781 89.203125 78.160156 C 89.320312 77.886719 89.640625 77.257812 90.019531 77.257812 C 90.128906 77.257812 90.574219 77.664062 90.964844 78.910156 C 91.265625 79.867188 92.019531 80.621094 93.042969 80.980469 Z M 87.976562 75.050781 L 86.355469 75.050781 L 86.355469 67.3125 C 86.898438 67.300781 87.328125 66.886719 87.398438 66.359375 L 87.972656 66.777344 L 87.972656 75.050781 Z M 71.785156 61.105469 C 71.847656 60.214844 72.011719 59.265625 72.304688 58.90625 C 72.4375 58.742188 72.585938 58.609375 72.746094 58.507812 C 73.703125 57.90625 74.261719 56.847656 74.203125 55.746094 C 74.183594 55.371094 74.238281 55.082031 74.359375 54.929688 C 74.511719 54.730469 74.742188 54.582031 75.046875 54.492188 C 75.964844 54.21875 76.703125 53.582031 77.070312 52.742188 C 77.234375 52.371094 77.492188 51.976562 77.710938 51.976562 C 77.789062 52.003906 78.15625 52.332031 78.5 53.421875 C 78.78125 54.324219 79.492188 55.03125 80.453125 55.371094 C 80.675781 55.445312 80.800781 55.535156 80.84375 55.597656 C 80.867188 55.632812 80.953125 55.773438 80.980469 56.128906 C 81.015625 56.601562 81.148438 57.054688 81.363281 57.464844 L 78.253906 57.464844 C 77.644531 57.464844 77.152344 57.957031 77.152344 58.566406 C 77.152344 59.175781 77.644531 59.667969 78.253906 59.667969 L 83.023438 59.667969 C 83.082031 60.046875 83.09375 60.574219 83.070312 61.109375 L 71.785156 61.109375 Z M 64.113281 27.289062 L 63.628906 25.621094 L 70.515625 25.621094 L 70.03125 27.289062 Z M 65.121094 19.945312 C 65 19.457031 64.929688 18.988281 64.914062 18.53125 L 69.230469 18.53125 C 69.214844 18.988281 69.148438 19.457031 69.023438 19.945312 Z M 67.074219 14.089844 C 67.894531 14.757812 68.476562 15.503906 68.832031 16.324219 L 65.3125 16.324219 C 65.671875 15.503906 66.25 14.757812 67.074219 14.089844 Z M 65.164062 22.152344 L 68.980469 22.152344 L 69.277344 23.414062 L 64.867188 23.414062 Z M 63.789062 29.496094 L 70.359375 29.496094 C 71.234375 30.542969 71.734375 31.742188 71.898438 33.183594 L 62.25 33.183594 C 62.410156 31.742188 62.914062 30.542969 63.789062 29.496094 Z M 51.125 59.664062 L 55.894531 59.664062 C 56.503906 59.664062 56.996094 59.171875 56.996094 58.5625 C 56.996094 57.953125 56.503906 57.460938 55.894531 57.460938 L 52.785156 57.460938 C 53 57.054688 53.132812 56.601562 53.164062 56.128906 C 53.191406 55.769531 53.277344 55.628906 53.304688 55.589844 C 53.34375 55.535156 53.46875 55.445312 53.691406 55.367188 C 54.652344 55.03125 55.367188 54.320312 55.644531 53.417969 C 55.988281 52.328125 56.355469 52 56.417969 51.976562 C 56.65625 51.976562 56.914062 52.371094 57.074219 52.742188 C 57.441406 53.578125 58.179688 54.214844 59.097656 54.488281 C 59.402344 54.578125 59.632812 54.726562 59.789062 54.925781 C 59.90625 55.082031 59.960938 55.371094 59.941406 55.742188 C 59.882812 56.84375 60.441406 57.90625 61.398438 58.507812 C 61.5625 58.609375 61.707031 58.742188 61.839844 58.902344 C 62.140625 59.277344 62.300781 60.226562 62.359375 61.105469 L 51.074219 61.105469 C 51.050781 60.570312 51.0625 60.046875 51.125 59.664062 Z M 46.746094 66.359375 C 46.816406 66.890625 47.246094 67.300781 47.789062 67.3125 L 47.789062 75.050781 L 46.171875 75.050781 L 46.171875 66.777344 Z M 38.242188 85.683594 L 43.550781 85.683594 C 44.160156 85.683594 44.652344 85.191406 44.652344 84.578125 C 44.652344 83.96875 44.160156 83.476562 43.550781 83.476562 L 39.945312 83.476562 C 40.230469 83.003906 40.414062 82.472656 40.457031 81.902344 C 40.488281 81.5 40.585938 81.324219 40.628906 81.261719 C 40.699219 81.164062 40.878906 81.058594 41.105469 80.980469 C 42.125 80.621094 42.882812 79.867188 43.179688 78.914062 C 43.570312 77.667969 44.015625 77.257812 44.125 77.257812 C 44.503906 77.257812 44.824219 77.890625 44.941406 78.160156 C 45.332031 79.050781 46.113281 79.726562 47.089844 80.019531 C 47.445312 80.125 47.71875 80.296875 47.898438 80.535156 C 48.042969 80.722656 48.109375 81.066406 48.085938 81.496094 C 48.082031 81.578125 48.105469 81.65625 48.109375 81.738281 C 48.105469 81.765625 48.089844 81.792969 48.089844 81.824219 C 48.089844 81.898438 48.117188 81.964844 48.132812 82.035156 C 48.25 83.003906 48.777344 83.890625 49.636719 84.433594 C 49.824219 84.546875 49.992188 84.703125 50.144531 84.886719 C 50.5 85.328125 50.6875 86.457031 50.746094 87.46875 L 38.171875 87.46875 C 38.136719 86.800781 38.15625 86.136719 38.242188 85.683594 Z M 35.808594 89.675781 L 41.539062 89.675781 L 39.441406 91.859375 L 35.808594 91.859375 Z M 37.449219 94.066406 L 38.804688 94.066406 L 38.804688 102.746094 L 37.449219 102.746094 Z M 101.121094 104.949219 L 101.121094 106.222656 L 33.027344 106.222656 L 33.027344 104.949219 Z M 33 122.449219 L 35.242188 122.449219 C 34.789062 123.167969 34.519531 124.007812 34.519531 124.917969 L 34.519531 132.730469 L 33 132.730469 Z M 29.566406 134.9375 L 104.582031 134.9375 L 104.582031 136.769531 L 29.566406 136.769531 Z M 26.796875 139.019531 L 107.351562 139.019531 L 107.351562 142.238281 L 26.796875 142.238281 Z M 112.816406 148.378906 L 21.328125 148.378906 L 21.328125 144.445312 L 112.816406 144.445312 Z M 112.816406 148.378906 " fill-opacity="1" fill-rule="nonzero"/></g><g clip-path="url(#f52bba561a)"><path stroke-linecap="butt" transform="matrix(0.745482, 0, 0, 0.745482, 1.856924, 0.00000994949)" fill="none" stroke-linejoin="miter" d="M -0.00195175 -0.0000133464 L 876.999968 -0.0000133464 L 876.999968 220.002392 L -0.00195175 220.002392 Z M -0.00195175 -0.0000133464 " stroke="#ffffff" stroke-width="8" stroke-opacity="1" stroke-miterlimit="4"/></g><g fill="#ffffff" fill-opacity="1"><g transform="translate(125.858332, 116.456678)"><g><path d="M 21.390625 -28.65625 L 21.390625 -10.796875 L 52.546875 -10.796875 L 52.546875 0 L 8.484375 0 L 8.484375 -65.28125 L 51.828125 -65.28125 L 51.828125 -54.46875 L 21.390625 -54.46875 L 21.390625 -39.203125 L 48 -39.203125 L 48 -28.65625 Z M 21.390625 -28.65625 "/></g></g></g><g fill="#ffffff" fill-opacity="1"><g transform="translate(181.980199, 116.456678)"><g/></g></g><g fill="#ffffff" fill-opacity="1"><g transform="translate(203.544927, 116.456678)"><g><path d="M 35.671875 0.9375 C 29.660156 0.9375 24.363281 -0.3125 19.78125 -2.8125 C 15.195312 -5.3125 11.609375 -9.066406 9.015625 -14.078125 C 6.429688 -19.097656 5.140625 -25.285156 5.140625 -32.640625 C 5.140625 -39.992188 6.429688 -46.175781 9.015625 -51.1875 C 11.609375 -56.207031 15.195312 -59.96875 19.78125 -62.46875 C 24.363281 -64.96875 29.660156 -66.21875 35.671875 -66.21875 C 41.953125 -66.21875 47.285156 -64.988281 51.671875 -62.53125 C 56.066406 -60.070312 59.203125 -56.328125 61.078125 -51.296875 L 51.65625 -45.546875 L 50.546875 -45.578125 C 49.140625 -48.972656 47.238281 -51.40625 44.84375 -52.875 C 42.445312 -54.351562 39.390625 -55.09375 35.671875 -55.09375 C 30.253906 -55.09375 26.023438 -53.296875 22.984375 -49.703125 C 19.953125 -46.117188 18.4375 -40.429688 18.4375 -32.640625 C 18.4375 -24.867188 19.953125 -19.1875 22.984375 -15.59375 C 26.023438 -12.007812 30.253906 -10.21875 35.671875 -10.21875 C 44.148438 -10.21875 49.34375 -14.34375 51.25 -22.59375 L 52.375 -22.59375 L 61.875 -17.640625 C 60.09375 -11.441406 57.039062 -6.796875 52.71875 -3.703125 C 48.40625 -0.609375 42.722656 0.9375 35.671875 0.9375 Z M 35.671875 0.9375 "/></g></g></g><g fill="#ffffff" fill-opacity="1"><g transform="translate(267.569396, 116.456678)"><g/></g></g><g fill="#ffffff" fill-opacity="1"><g transform="translate(289.134123, 116.456678)"><g><path d="M 21.390625 -65.28125 L 21.390625 -10.796875 L 50.71875 -10.796875 L 50.71875 0 L 8.484375 0 L 8.484375 -65.28125 Z M 21.390625 -65.28125 "/></g></g></g><g fill="#ffffff" fill-opacity="1"><g transform="translate(341.996714, 116.456678)"><g/></g></g><g fill="#ffffff" fill-opacity="1"><g transform="translate(363.561453, 116.456678)"><g><path d="M 21.390625 0 L 8.484375 0 L 8.484375 -65.28125 L 21.390625 -65.28125 Z M 21.390625 0 "/></g></g></g><g fill="#ffffff" fill-opacity="1"><g transform="translate(393.475257, 116.456678)"><g/></g></g><g fill="#ffffff" fill-opacity="1"><g transform="translate(415.039973, 116.456678)"><g><path d="M 33.703125 -65.28125 C 38.378906 -65.28125 42.375 -64.421875 45.6875 -62.703125 C 49.007812 -60.992188 51.519531 -58.597656 53.21875 -55.515625 C 54.914062 -52.429688 55.765625 -48.851562 55.765625 -44.78125 C 55.765625 -40.707031 54.914062 -37.132812 53.21875 -34.0625 C 51.519531 -31 49.007812 -28.609375 45.6875 -26.890625 C 42.375 -25.179688 38.378906 -24.328125 33.703125 -24.328125 L 21.390625 -24.328125 L 21.390625 0 L 8.484375 0 L 8.484375 -65.28125 Z M 32.015625 -34.5625 C 39.179688 -34.5625 42.765625 -37.96875 42.765625 -44.78125 C 42.765625 -51.625 39.179688 -55.046875 32.015625 -55.046875 L 21.390625 -55.046875 L 21.390625 -34.5625 Z M 32.015625 -34.5625 "/></g></g></g><g fill="#ffffff" fill-opacity="1"><g transform="translate(474.68899, 116.456678)"><g/></g></g><g fill="#ffffff" fill-opacity="1"><g transform="translate(496.253729, 116.456678)"><g><path d="M 28.9375 0.9375 C 24.40625 0.9375 20.375 0.378906 16.84375 -0.734375 C 13.320312 -1.847656 10.382812 -3.3125 8.03125 -5.125 C 5.6875 -6.945312 3.890625 -8.941406 2.640625 -11.109375 L 9.734375 -19.78125 L 10.84375 -19.78125 C 12.8125 -16.863281 15.304688 -14.539062 18.328125 -12.8125 C 21.347656 -11.082031 24.882812 -10.21875 28.9375 -10.21875 C 32.382812 -10.21875 34.984375 -10.945312 36.734375 -12.40625 C 38.492188 -13.863281 39.375 -15.875 39.375 -18.4375 C 39.375 -19.988281 39.09375 -21.285156 38.53125 -22.328125 C 37.96875 -23.367188 37.03125 -24.257812 35.71875 -25 C 34.40625 -25.75 32.632812 -26.390625 30.40625 -26.921875 L 22.015625 -28.84375 C 16.148438 -30.175781 11.78125 -32.398438 8.90625 -35.515625 C 6.03125 -38.628906 4.59375 -42.671875 4.59375 -47.640625 C 4.59375 -51.328125 5.515625 -54.566406 7.359375 -57.359375 C 9.210938 -60.160156 11.898438 -62.335938 15.421875 -63.890625 C 18.953125 -65.441406 23.171875 -66.21875 28.078125 -66.21875 C 33.109375 -66.21875 37.414062 -65.550781 41 -64.21875 C 44.59375 -62.894531 47.625 -60.863281 50.09375 -58.125 L 43.703125 -49.375 L 42.59375 -49.375 C 40.75 -51.3125 38.632812 -52.765625 36.25 -53.734375 C 33.875 -54.703125 31.148438 -55.1875 28.078125 -55.1875 C 24.535156 -55.1875 21.84375 -54.5625 20 -53.3125 C 18.15625 -52.0625 17.234375 -50.332031 17.234375 -48.125 C 17.234375 -46.070312 17.878906 -44.4375 19.171875 -43.21875 C 20.472656 -42 22.710938 -41.046875 25.890625 -40.359375 L 34.46875 -38.578125 C 40.8125 -37.234375 45.410156 -34.960938 48.265625 -31.765625 C 51.117188 -28.566406 52.546875 -24.394531 52.546875 -19.25 C 52.546875 -15.164062 51.664062 -11.613281 49.90625 -8.59375 C 48.15625 -5.570312 45.507812 -3.226562 41.96875 -1.5625 C 38.425781 0.101562 34.082031 0.9375 28.9375 0.9375 Z M 28.9375 0.9375 "/></g></g></g><g fill="#ffffff" fill-opacity="1"><g transform="translate(552.330949, 116.456678)"><g/></g></g><g fill="#ffffff" fill-opacity="1"><g transform="translate(573.895687, 116.456678)"><g><path d="M 21.390625 -28.65625 L 21.390625 -10.796875 L 52.546875 -10.796875 L 52.546875 0 L 8.484375 0 L 8.484375 -65.28125 L 51.828125 -65.28125 L 51.828125 -54.46875 L 21.390625 -54.46875 L 21.390625 -39.203125 L 48 -39.203125 L 48 -28.65625 Z M 21.390625 -28.65625 "/></g></g></g></svg>