<svg xmlns="http://www.w3.org/2000/svg" xmlns:xlink="http://www.w3.org/1999/xlink" width="1920" zoomAndPan="magnify" viewBox="0 0 1440 809.999993" height="1080" preserveAspectRatio="xMidYMid meet" version="1.0"><defs><g/><clipPath id="86a2a110bd"><path d="M 408.382812 334.410156 L 505 334.410156 L 505 473.910156 L 408.382812 473.910156 Z M 408.382812 334.410156 " clip-rule="nonzero"/></clipPath><clipPath id="25bb9223b0"><path d="M 391.132812 322.835938 L 1048.882812 322.835938 L 1048.882812 487.835938 L 391.132812 487.835938 Z M 391.132812 322.835938 " clip-rule="nonzero"/></clipPath></defs><g clip-path="url(#86a2a110bd)"><path fill="#ffffff" d="M 503.875 465.9375 L 499.484375 465.9375 L 499.484375 461.585938 C 499.484375 460.972656 498.988281 460.476562 498.375 460.476562 L 496.695312 460.476562 L 496.695312 457.480469 C 496.695312 456.867188 496.199219 456.371094 495.585938 456.371094 L 493.238281 456.371094 L 493.238281 441.738281 L 496.265625 438.601562 L 496.28125 438.585938 C 496.320312 438.542969 496.339844 438.488281 496.375 438.441406 C 496.421875 438.375 496.476562 438.3125 496.507812 438.234375 C 496.617188 437.964844 496.617188 437.664062 496.507812 437.394531 C 496.476562 437.320312 496.421875 437.257812 496.375 437.191406 C 496.339844 437.140625 496.320312 437.089844 496.28125 437.046875 L 496.265625 437.03125 L 493.21875 433.867188 L 493.21875 427.3125 C 493.21875 426.699219 492.722656 426.203125 492.105469 426.203125 L 488.765625 426.203125 L 488.765625 417.472656 L 489.304688 417.472656 C 489.921875 417.472656 490.417969 416.976562 490.417969 416.363281 L 490.417969 411.945312 C 490.417969 411.332031 489.921875 410.835938 489.304688 410.835938 L 488.042969 410.835938 C 488.09375 409.785156 488.046875 408.367188 487.535156 407.484375 C 487.484375 407.398438 487.40625 407.316406 487.347656 407.234375 C 487.324219 407.203125 487.304688 407.164062 487.277344 407.136719 C 487 406.75 486.667969 406.378906 486.234375 406.039062 C 485.941406 405.808594 485.761719 405.464844 485.734375 405.074219 C 485.679688 404.359375 485.484375 403.757812 485.148438 403.296875 C 484.804688 402.8125 484.285156 402.449219 483.601562 402.210938 C 483.246094 402.085938 482.988281 401.851562 482.898438 401.5625 C 482.109375 399.046875 480.914062 398.417969 479.992188 398.355469 L 479.992188 389.453125 C 479.992188 389.097656 479.824219 388.765625 479.535156 388.554688 L 477.222656 386.871094 L 477.222656 385.417969 C 477.222656 384.804688 476.726562 384.308594 476.113281 384.308594 L 475.0625 384.308594 C 475.101562 383.347656 475.042969 382.09375 474.578125 381.296875 C 474.527344 381.207031 474.445312 381.121094 474.382812 381.03125 C 474.367188 381.007812 474.355469 380.984375 474.332031 380.960938 C 474.074219 380.605469 473.765625 380.261719 473.371094 379.953125 C 473.125 379.757812 472.976562 379.46875 472.949219 379.136719 C 472.921875 378.777344 472.847656 378.449219 472.742188 378.152344 C 472.90625 371 470.578125 365.09375 465.839844 360.582031 L 465.839844 357.332031 C 465.839844 356.71875 465.34375 356.222656 464.730469 356.222656 L 463.832031 356.222656 C 463.652344 354.25 462.976562 352.570312 461.789062 351.132812 L 462.75 347.808594 C 462.84375 347.472656 462.777344 347.113281 462.570312 346.832031 C 462.359375 346.554688 462.03125 346.390625 461.683594 346.390625 L 461.242188 346.390625 L 460.683594 344.027344 C 461.863281 340.273438 460.707031 336.972656 457.367188 334.710938 C 456.992188 334.457031 456.496094 334.457031 456.121094 334.710938 C 452.777344 336.976562 451.625 340.273438 452.800781 344.027344 L 452.242188 346.390625 L 451.804688 346.390625 C 451.457031 346.390625 451.128906 346.554688 450.917969 346.832031 C 450.707031 347.113281 450.640625 347.472656 450.738281 347.808594 L 451.699219 351.132812 C 450.511719 352.574219 449.835938 354.25 449.65625 356.222656 L 448.757812 356.222656 C 448.144531 356.222656 447.648438 356.71875 447.648438 357.332031 L 447.648438 360.582031 C 442.910156 365.09375 440.582031 371 440.746094 378.15625 C 440.640625 378.453125 440.566406 378.777344 440.539062 379.140625 C 440.511719 379.472656 440.363281 379.757812 440.117188 379.953125 C 439.71875 380.261719 439.414062 380.605469 439.152344 380.960938 C 439.132812 380.984375 439.121094 381.007812 439.105469 381.027344 C 439.042969 381.121094 438.960938 381.207031 438.90625 381.300781 C 438.445312 382.09375 438.386719 383.351562 438.425781 384.308594 L 437.371094 384.308594 C 436.757812 384.308594 436.261719 384.808594 436.261719 385.417969 L 436.261719 386.871094 L 433.953125 388.558594 C 433.664062 388.765625 433.496094 389.097656 433.496094 389.453125 L 433.496094 398.355469 C 432.574219 398.417969 431.375 399.046875 430.585938 401.566406 C 430.5 401.851562 430.242188 402.085938 429.882812 402.210938 C 429.203125 402.449219 428.683594 402.8125 428.339844 403.292969 C 428 403.757812 427.804688 404.359375 427.753906 405.074219 C 427.722656 405.46875 427.546875 405.808594 427.25 406.042969 C 426.820312 406.378906 426.488281 406.75 426.210938 407.136719 C 426.179688 407.164062 426.164062 407.203125 426.136719 407.234375 C 426.078125 407.320312 426.003906 407.398438 425.953125 407.484375 C 425.441406 408.367188 425.394531 409.785156 425.445312 410.835938 L 424.179688 410.835938 C 423.566406 410.835938 423.070312 411.332031 423.070312 411.945312 L 423.070312 416.363281 C 423.070312 416.976562 423.566406 417.472656 424.179688 417.472656 L 424.71875 417.472656 L 424.71875 426.203125 L 421.378906 426.203125 C 420.765625 426.203125 420.269531 426.699219 420.269531 427.3125 L 420.269531 433.867188 L 417.21875 437.03125 L 417.207031 437.046875 C 417.164062 437.089844 417.144531 437.144531 417.113281 437.191406 C 417.066406 437.257812 417.011719 437.320312 416.980469 437.398438 C 416.871094 437.664062 416.871094 437.96875 416.980469 438.238281 C 417.011719 438.3125 417.066406 438.375 417.113281 438.441406 C 417.144531 438.488281 417.164062 438.542969 417.207031 438.585938 L 417.21875 438.601562 L 420.246094 441.742188 L 420.246094 456.375 L 417.902344 456.375 C 417.289062 456.375 416.792969 456.871094 416.792969 457.484375 L 416.792969 460.480469 L 415.113281 460.480469 C 414.5 460.480469 414.003906 460.976562 414.003906 461.589844 L 414.003906 465.9375 L 409.613281 465.9375 C 409 465.9375 408.503906 466.433594 408.503906 467.046875 L 408.503906 473.222656 C 408.503906 473.835938 409 474.332031 409.613281 474.332031 L 503.875 474.332031 C 504.488281 474.332031 504.984375 473.835938 504.984375 473.222656 L 504.984375 467.046875 C 504.984375 466.433594 504.488281 465.9375 503.875 465.9375 Z M 477.910156 456.371094 L 477.910156 448.511719 C 477.910156 447.597656 477.636719 446.75 477.183594 446.027344 L 480.722656 446.027344 C 480.269531 446.75 479.996094 447.597656 479.996094 448.511719 L 479.996094 456.371094 Z M 467.109375 456.371094 L 467.109375 448.511719 C 467.109375 447.597656 466.839844 446.75 466.382812 446.027344 L 469.140625 446.027344 C 468.6875 446.75 468.414062 447.597656 468.414062 448.511719 L 468.414062 456.371094 Z M 455.871094 456.371094 L 455.871094 448.511719 C 455.871094 447.597656 455.597656 446.75 455.140625 446.027344 L 458.339844 446.027344 C 457.886719 446.75 457.613281 447.597656 457.613281 448.511719 L 457.613281 456.371094 Z M 445.070312 456.371094 L 445.070312 448.511719 C 445.070312 447.597656 444.800781 446.75 444.34375 446.027344 L 447.101562 446.027344 C 446.648438 446.75 446.375 447.597656 446.375 448.511719 L 446.375 456.371094 Z M 433.488281 456.371094 L 433.488281 448.511719 C 433.488281 447.597656 433.21875 446.75 432.761719 446.027344 L 436.300781 446.027344 C 435.851562 446.75 435.578125 447.597656 435.578125 448.511719 L 435.578125 456.371094 Z M 490.996094 433.203125 L 422.492188 433.203125 L 422.492188 431.921875 L 490.996094 431.921875 Z M 421.851562 435.421875 L 491.636719 435.421875 L 492.871094 436.703125 L 420.617188 436.703125 Z M 492.871094 438.925781 L 491.636719 440.203125 L 421.851562 440.203125 L 420.617188 438.925781 Z M 422.464844 442.421875 L 491.019531 442.421875 L 491.019531 443.808594 L 422.464844 443.808594 Z M 426.214844 448.511719 C 426.214844 447.140625 427.324219 446.027344 428.789062 446.027344 C 430.15625 446.027344 431.269531 447.140625 431.269531 448.511719 L 431.269531 456.371094 L 426.214844 456.371094 Z M 437.796875 448.511719 C 437.796875 447.140625 438.90625 446.027344 440.371094 446.027344 C 441.738281 446.027344 442.851562 447.140625 442.851562 448.511719 L 442.851562 456.371094 L 437.792969 456.371094 L 437.792969 448.511719 Z M 448.59375 448.511719 C 448.59375 447.140625 449.707031 446.027344 451.171875 446.027344 C 452.539062 446.027344 453.652344 447.140625 453.652344 448.511719 L 453.652344 456.371094 L 448.59375 456.371094 Z M 459.835938 448.511719 C 459.835938 447.140625 460.949219 446.027344 462.410156 446.027344 C 463.777344 446.027344 464.890625 447.140625 464.890625 448.511719 L 464.890625 456.371094 L 459.835938 456.371094 Z M 470.632812 448.511719 C 470.632812 447.140625 471.746094 446.027344 473.210938 446.027344 C 474.578125 446.027344 475.691406 447.140625 475.691406 448.511719 L 475.691406 456.371094 L 470.632812 456.371094 Z M 482.21875 448.511719 C 482.21875 447.140625 483.332031 446.027344 484.792969 446.027344 C 486.160156 446.027344 487.273438 447.140625 487.273438 448.511719 L 487.273438 456.371094 L 482.214844 456.371094 L 482.214844 448.511719 Z M 488.765625 446.027344 L 491.019531 446.027344 L 491.019531 456.371094 L 489.492188 456.371094 L 489.492188 448.507812 C 489.492188 447.597656 489.21875 446.75 488.765625 446.027344 Z M 486.546875 426.203125 L 485.183594 426.203125 L 485.183594 417.472656 L 486.546875 417.472656 Z M 476.699219 426.203125 L 476.699219 416.808594 L 479.832031 413.546875 L 482.960938 416.808594 L 482.960938 426.203125 Z M 473.113281 426.203125 L 473.113281 417.472656 L 474.480469 417.472656 L 474.480469 426.203125 Z M 465.679688 426.203125 L 465.679688 417.472656 L 466.21875 417.472656 C 466.832031 417.472656 467.328125 416.976562 467.328125 416.359375 L 467.328125 415.261719 L 469.246094 415.261719 L 469.246094 416.359375 C 469.246094 416.976562 469.742188 417.472656 470.355469 417.472656 L 470.894531 417.472656 L 470.894531 426.203125 Z M 462.09375 426.203125 L 462.09375 417.472656 L 463.460938 417.472656 L 463.460938 426.203125 Z M 453.613281 426.203125 L 453.613281 416.808594 L 456.742188 413.546875 L 459.875 416.808594 L 459.875 426.203125 Z M 450.027344 426.203125 L 450.027344 417.472656 L 451.390625 417.472656 L 451.390625 426.203125 Z M 442.59375 426.203125 L 442.59375 417.472656 L 443.132812 417.472656 C 443.746094 417.472656 444.242188 416.976562 444.242188 416.359375 L 444.242188 415.261719 L 446.160156 415.261719 L 446.160156 416.359375 C 446.160156 416.976562 446.652344 417.472656 447.269531 417.472656 L 447.808594 417.472656 L 447.808594 426.203125 Z M 439.007812 426.203125 L 439.007812 417.472656 L 440.375 417.472656 L 440.375 426.203125 Z M 430.523438 426.203125 L 430.523438 416.808594 L 433.65625 413.546875 L 436.789062 416.808594 L 436.789062 426.203125 Z M 443.421875 386.53125 L 441.679688 388.34375 L 438.484375 388.34375 L 438.484375 386.53125 Z M 449.21875 362.144531 L 464.265625 362.144531 C 468.183594 365.851562 470.238281 370.453125 470.496094 376.15625 C 470.4375 376.085938 470.386719 376.011719 470.355469 375.914062 C 469.578125 373.425781 468.351562 372.90625 467.460938 372.90625 C 466.800781 372.90625 465.570312 373.179688 464.769531 375.007812 C 464.664062 375.25 464.429688 375.441406 464.132812 375.527344 C 463.761719 375.636719 463.421875 375.796875 463.121094 376 L 450.367188 376 C 450.0625 375.796875 449.722656 375.636719 449.355469 375.527344 C 449.054688 375.441406 448.824219 375.25 448.71875 375.003906 C 447.917969 373.179688 446.6875 372.90625 446.023438 372.90625 C 445.132812 372.90625 443.90625 373.425781 443.128906 375.914062 C 443.101562 376.011719 443.046875 376.085938 442.988281 376.152344 C 443.25 370.453125 445.304688 365.851562 449.21875 362.144531 Z M 463.617188 358.441406 L 463.617188 359.925781 L 449.867188 359.925781 L 449.867188 358.441406 Z M 475.003906 386.53125 L 475.003906 388.34375 L 471.808594 388.34375 L 470.066406 386.53125 Z M 475.117188 415.25 L 471.464844 415.25 L 471.464844 413.054688 L 477.226562 413.054688 Z M 470.355469 410.835938 C 469.742188 410.835938 469.246094 411.332031 469.246094 411.945312 L 469.246094 413.042969 L 467.328125 413.042969 L 467.328125 411.945312 C 467.328125 411.332031 466.832031 410.835938 466.21875 410.835938 L 465.628906 410.835938 C 465.613281 410.484375 465.582031 410.09375 465.527344 409.675781 L 471.042969 409.675781 C 470.988281 410.09375 470.960938 410.484375 470.945312 410.835938 Z M 461.457031 415.25 L 459.347656 413.054688 L 465.109375 413.054688 L 465.109375 415.25 Z M 452.027344 415.25 L 448.378906 415.25 L 448.378906 413.054688 L 454.140625 413.054688 Z M 450.824219 409.035156 L 456.164062 409.035156 C 456.777344 409.035156 457.273438 408.539062 457.273438 407.925781 C 457.273438 407.3125 456.777344 406.816406 456.164062 406.816406 L 452.539062 406.816406 C 452.824219 406.339844 453.011719 405.804688 453.054688 405.234375 C 453.085938 404.828125 453.183594 404.648438 453.226562 404.589844 C 453.257812 404.542969 453.375 404.417969 453.703125 404.304688 C 454.730469 403.945312 455.492188 403.1875 455.792969 402.226562 C 456.226562 400.851562 456.675781 400.5625 456.742188 400.5625 C 457.125 400.5625 457.445312 401.199219 457.566406 401.46875 C 457.878906 402.1875 458.457031 402.757812 459.179688 403.109375 L 457.980469 403.109375 C 457.367188 403.109375 456.871094 403.605469 456.871094 404.21875 C 456.871094 404.832031 457.367188 405.328125 457.980469 405.328125 L 460.769531 405.328125 C 460.769531 405.339844 460.773438 405.355469 460.777344 405.367188 C 460.894531 406.339844 461.425781 407.234375 462.289062 407.777344 C 462.476562 407.894531 462.648438 408.050781 462.800781 408.234375 C 463.160156 408.679688 463.34375 409.816406 463.402344 410.832031 L 450.757812 410.832031 C 450.722656 410.1875 450.734375 409.507812 450.824219 409.035156 Z M 451.007812 398.34375 L 451.007812 390.5625 L 452.414062 390.5625 L 452.414062 398.34375 Z M 443.261719 398.34375 L 443.261719 389.898438 L 446.023438 387.019531 L 448.785156 389.898438 L 448.785156 398.34375 Z M 454.632812 390.5625 L 454.675781 390.5625 C 455.289062 390.5625 455.785156 390.066406 455.785156 389.453125 L 455.785156 388.546875 L 457.703125 388.546875 L 457.703125 389.453125 C 457.703125 390.066406 458.199219 390.5625 458.8125 390.5625 L 458.855469 390.5625 L 458.855469 398.34375 L 454.632812 398.34375 Z M 462.480469 390.5625 L 462.480469 398.34375 L 461.074219 398.34375 L 461.074219 390.5625 Z M 470.226562 398.34375 L 464.699219 398.34375 L 464.699219 389.898438 L 467.460938 387.019531 L 470.226562 389.898438 Z M 472.050781 406.839844 C 471.902344 407.023438 471.769531 407.230469 471.660156 407.457031 L 464.914062 407.457031 C 464.800781 407.230469 464.671875 407.023438 464.523438 406.835938 C 464.347656 406.625 464.15625 406.4375 463.957031 406.265625 L 472.617188 406.265625 C 472.414062 406.4375 472.222656 406.625 472.050781 406.839844 Z M 474.269531 402.507812 C 473.949219 402.933594 473.753906 403.449219 473.671875 404.042969 L 462.902344 404.042969 C 462.820312 403.449219 462.625 402.929688 462.300781 402.507812 C 461.835938 401.898438 461.164062 401.453125 460.359375 401.210938 C 460.003906 401.105469 459.726562 400.875 459.597656 400.578125 C 459.59375 400.574219 459.589844 400.566406 459.589844 400.5625 L 476.984375 400.5625 C 476.980469 400.570312 476.980469 400.574219 476.976562 400.578125 C 476.847656 400.875 476.566406 401.105469 476.214844 401.210938 C 475.410156 401.453125 474.738281 401.898438 474.269531 402.507812 Z M 472.445312 398.34375 L 472.445312 390.5625 L 473.921875 390.5625 L 473.921875 398.34375 Z M 463.117188 388.34375 L 459.921875 388.34375 L 459.921875 386.53125 L 464.859375 386.53125 Z M 461.742188 378.21875 C 461.707031 378.476562 461.6875 378.742188 461.703125 379.03125 C 461.71875 379.335938 461.546875 379.644531 461.269531 379.820312 C 461.054688 379.953125 460.859375 380.113281 460.675781 380.285156 L 452.8125 380.285156 C 452.625 380.113281 452.429688 379.953125 452.21875 379.820312 C 451.9375 379.644531 451.769531 379.332031 451.785156 379.03125 C 451.796875 378.742188 451.78125 378.472656 451.746094 378.21875 Z M 453.988281 382.507812 L 459.5 382.507812 C 459.355469 383.140625 459.285156 383.773438 459.257812 384.308594 L 458.8125 384.308594 C 458.199219 384.308594 457.703125 384.808594 457.703125 385.417969 L 457.703125 386.328125 L 455.785156 386.328125 L 455.785156 385.417969 C 455.785156 384.808594 455.289062 384.308594 454.675781 384.308594 L 454.226562 384.308594 C 454.199219 383.773438 454.132812 383.136719 453.988281 382.507812 Z M 453.566406 386.53125 L 453.566406 388.34375 L 450.371094 388.34375 L 448.628906 386.53125 Z M 439.5625 390.5625 L 441.042969 390.5625 L 441.042969 398.34375 L 439.5625 398.34375 Z M 454.058594 400.5625 C 453.921875 400.859375 453.792969 401.183594 453.675781 401.566406 C 453.585938 401.851562 453.328125 402.085938 452.96875 402.210938 C 452.292969 402.445312 451.773438 402.8125 451.425781 403.292969 C 451.265625 403.511719 451.144531 403.765625 451.046875 404.042969 L 439.816406 404.042969 C 439.734375 403.449219 439.539062 402.933594 439.214844 402.507812 C 438.75 401.898438 438.078125 401.453125 437.273438 401.210938 C 436.917969 401.105469 436.640625 400.875 436.511719 400.578125 C 436.507812 400.574219 436.503906 400.566406 436.503906 400.5625 Z M 450.097656 406.265625 C 449.78125 406.539062 449.515625 406.828125 449.296875 407.136719 C 449.273438 407.15625 449.261719 407.183594 449.242188 407.207031 C 449.183594 407.292969 449.109375 407.371094 449.058594 407.457031 L 441.828125 407.457031 C 441.714844 407.230469 441.585938 407.023438 441.4375 406.839844 C 441.265625 406.625 441.070312 406.4375 440.867188 406.265625 Z M 442.441406 409.675781 L 448.535156 409.675781 C 448.515625 410.082031 448.515625 410.476562 448.53125 410.835938 L 447.269531 410.835938 C 446.652344 410.835938 446.160156 411.332031 446.160156 411.945312 L 446.160156 413.042969 L 444.242188 413.042969 L 444.242188 411.945312 C 444.242188 411.332031 443.746094 410.835938 443.132812 410.835938 L 442.542969 410.835938 C 442.527344 410.484375 442.496094 410.09375 442.441406 409.675781 Z M 442.023438 413.054688 L 442.023438 415.25 L 438.371094 415.25 L 436.261719 413.054688 Z M 488.195312 415.25 L 484.546875 415.25 L 482.433594 413.054688 L 488.199219 413.054688 L 488.199219 415.25 Z M 482.871094 404.304688 C 483.097656 404.386719 483.277344 404.492188 483.347656 404.59375 C 483.390625 404.652344 483.492188 404.828125 483.519531 405.234375 C 483.5625 405.804688 483.75 406.339844 484.035156 406.816406 L 480.410156 406.816406 C 479.796875 406.816406 479.300781 407.3125 479.300781 407.925781 C 479.300781 408.539062 479.796875 409.035156 480.410156 409.035156 L 485.75 409.035156 C 485.835938 409.496094 485.855469 410.160156 485.820312 410.835938 L 473.167969 410.835938 C 473.226562 409.820312 473.410156 408.683594 473.773438 408.238281 C 473.925781 408.050781 474.097656 407.894531 474.285156 407.777344 C 475.148438 407.234375 475.679688 406.339844 475.796875 405.367188 C 475.8125 405.296875 475.839844 405.230469 475.839844 405.152344 C 475.839844 405.125 475.824219 405.097656 475.824219 405.066406 C 475.824219 404.988281 475.847656 404.90625 475.84375 404.824219 C 475.820312 404.390625 475.886719 404.046875 476.035156 403.855469 C 476.214844 403.617188 476.488281 403.445312 476.847656 403.335938 C 477.828125 403.042969 478.617188 402.363281 479.007812 401.46875 C 479.128906 401.195312 479.449219 400.558594 479.828125 400.558594 C 479.9375 400.558594 480.386719 400.972656 480.777344 402.226562 C 481.082031 403.1875 481.84375 403.945312 482.871094 404.304688 Z M 477.773438 398.34375 L 476.140625 398.34375 L 476.140625 390.558594 C 476.691406 390.542969 477.121094 390.128906 477.195312 389.597656 L 477.769531 390.019531 L 477.769531 398.34375 Z M 461.484375 384.308594 C 461.546875 383.414062 461.710938 382.460938 462.007812 382.097656 C 462.140625 381.933594 462.289062 381.800781 462.449219 381.699219 C 463.414062 381.09375 463.976562 380.027344 463.917969 378.917969 C 463.898438 378.542969 463.953125 378.25 464.074219 378.097656 C 464.226562 377.894531 464.460938 377.746094 464.765625 377.65625 C 465.691406 377.378906 466.433594 376.742188 466.800781 375.898438 C 466.964844 375.523438 467.222656 375.128906 467.445312 375.125 C 467.527344 375.152344 467.894531 375.484375 468.238281 376.582031 C 468.523438 377.488281 469.238281 378.199219 470.207031 378.539062 C 470.429688 378.617188 470.554688 378.707031 470.597656 378.769531 C 470.621094 378.804688 470.707031 378.949219 470.734375 379.304688 C 470.769531 379.78125 470.902344 380.238281 471.121094 380.644531 L 467.992188 380.644531 C 467.378906 380.644531 466.882812 381.144531 466.882812 381.753906 C 466.882812 382.367188 467.378906 382.867188 467.992188 382.867188 L 472.789062 382.867188 C 472.847656 383.246094 472.859375 383.777344 472.835938 384.3125 L 461.484375 384.3125 Z M 453.765625 350.289062 L 453.28125 348.609375 L 460.207031 348.609375 L 459.722656 350.289062 Z M 454.78125 342.902344 C 454.65625 342.410156 454.589844 341.9375 454.574219 341.480469 L 458.914062 341.480469 C 458.898438 341.9375 458.832031 342.410156 458.707031 342.902344 Z M 456.742188 337.007812 C 457.570312 337.679688 458.152344 338.433594 458.511719 339.261719 L 454.972656 339.261719 C 455.332031 338.433594 455.917969 337.679688 456.742188 337.007812 Z M 454.824219 345.121094 L 458.664062 345.121094 L 458.964844 346.390625 L 454.523438 346.390625 Z M 453.4375 352.507812 L 460.050781 352.507812 C 460.929688 353.5625 461.433594 354.769531 461.597656 356.222656 L 451.890625 356.222656 C 452.054688 354.769531 452.558594 353.5625 453.4375 352.507812 Z M 440.699219 382.863281 L 445.496094 382.863281 C 446.109375 382.863281 446.605469 382.363281 446.605469 381.753906 C 446.605469 381.140625 446.109375 380.644531 445.496094 380.644531 L 442.367188 380.644531 C 442.585938 380.234375 442.71875 379.777344 442.75 379.304688 C 442.777344 378.945312 442.863281 378.800781 442.890625 378.761719 C 442.933594 378.707031 443.058594 378.617188 443.28125 378.535156 C 444.246094 378.199219 444.964844 377.484375 445.246094 376.578125 C 445.589844 375.480469 445.960938 375.148438 446.023438 375.125 C 446.261719 375.125 446.519531 375.523438 446.683594 375.894531 C 447.054688 376.738281 447.796875 377.378906 448.71875 377.65625 C 449.027344 377.746094 449.257812 377.894531 449.414062 378.09375 C 449.53125 378.25 449.585938 378.542969 449.566406 378.914062 C 449.507812 380.023438 450.074219 381.089844 451.035156 381.695312 C 451.199219 381.800781 451.347656 381.933594 451.480469 382.09375 C 451.78125 382.472656 451.945312 383.425781 452.003906 384.308594 L 440.648438 384.308594 C 440.625 383.773438 440.636719 383.242188 440.699219 382.863281 Z M 436.292969 389.597656 C 436.363281 390.128906 436.796875 390.542969 437.34375 390.558594 L 437.34375 398.34375 L 435.714844 398.34375 L 435.714844 390.019531 Z M 427.738281 409.035156 L 433.078125 409.035156 C 433.691406 409.035156 434.1875 408.539062 434.1875 407.925781 C 434.1875 407.3125 433.691406 406.816406 433.078125 406.816406 L 429.453125 406.816406 C 429.738281 406.339844 429.925781 405.804688 429.96875 405.234375 C 429.996094 404.828125 430.097656 404.652344 430.140625 404.589844 C 430.210938 404.492188 430.390625 404.386719 430.617188 404.304688 C 431.644531 403.945312 432.40625 403.1875 432.707031 402.226562 C 433.097656 400.972656 433.546875 400.5625 433.65625 400.5625 C 434.039062 400.5625 434.359375 401.195312 434.476562 401.46875 C 434.871094 402.363281 435.65625 403.042969 436.640625 403.335938 C 436.996094 403.445312 437.269531 403.621094 437.453125 403.855469 C 437.597656 404.046875 437.664062 404.390625 437.640625 404.824219 C 437.636719 404.90625 437.660156 404.988281 437.664062 405.066406 C 437.660156 405.097656 437.644531 405.125 437.644531 405.152344 C 437.644531 405.230469 437.675781 405.296875 437.6875 405.367188 C 437.804688 406.339844 438.339844 407.234375 439.203125 407.777344 C 439.390625 407.894531 439.558594 408.050781 439.710938 408.238281 C 440.070312 408.679688 440.257812 409.816406 440.316406 410.835938 L 427.667969 410.835938 C 427.632812 410.160156 427.652344 409.492188 427.738281 409.035156 Z M 425.289062 413.054688 L 431.054688 413.054688 L 428.941406 415.25 L 425.289062 415.25 Z M 426.9375 417.472656 L 428.304688 417.472656 L 428.304688 426.203125 L 426.9375 426.203125 Z M 490.996094 428.421875 L 490.996094 429.703125 L 422.492188 429.703125 L 422.492188 428.421875 Z M 422.464844 446.027344 L 424.71875 446.027344 C 424.265625 446.75 423.992188 447.59375 423.992188 448.507812 L 423.992188 456.371094 L 422.464844 456.371094 Z M 419.011719 458.59375 L 494.480469 458.59375 L 494.480469 460.433594 L 419.011719 460.433594 Z M 416.222656 462.695312 L 497.265625 462.695312 L 497.265625 465.9375 L 416.222656 465.9375 Z M 502.765625 472.113281 L 410.722656 472.113281 L 410.722656 468.15625 L 502.765625 468.15625 Z M 502.765625 472.113281 " fill-opacity="1" fill-rule="nonzero"/></g><g clip-path="url(#25bb9223b0)"><path stroke-linecap="butt" transform="matrix(0.75, 0, 0, 0.75, 391.132223, 322.834955)" fill="none" stroke-linejoin="miter" d="M 0.000786607 0.00131006 L 877.000831 0.00131006 L 877.000831 220.001321 L 0.000786607 220.001321 Z M 0.000786607 0.00131006 " stroke="#ffffff" stroke-width="8" stroke-opacity="1" stroke-miterlimit="4"/></g><g fill="#ffffff" fill-opacity="1"><g transform="translate(515.873476, 439.997429)"><g><path d="M 21.515625 -28.84375 L 21.515625 -10.875 L 52.875 -10.875 L 52.875 0 L 8.53125 0 L 8.53125 -65.671875 L 52.15625 -65.671875 L 52.15625 -54.8125 L 21.515625 -54.8125 L 21.515625 -39.4375 L 48.296875 -39.4375 L 48.296875 -28.84375 Z M 21.515625 -28.84375 "/></g></g></g><g fill="#ffffff" fill-opacity="1"><g transform="translate(572.335475, 439.997429)"><g/></g></g><g fill="#ffffff" fill-opacity="1"><g transform="translate(594.030897, 439.997429)"><g><path d="M 35.890625 0.9375 C 29.835938 0.9375 24.503906 -0.316406 19.890625 -2.828125 C 15.285156 -5.347656 11.679688 -9.128906 9.078125 -14.171875 C 6.472656 -19.222656 5.171875 -25.445312 5.171875 -32.84375 C 5.171875 -40.238281 6.472656 -46.457031 9.078125 -51.5 C 11.679688 -56.550781 15.285156 -60.332031 19.890625 -62.84375 C 24.503906 -65.363281 29.835938 -66.625 35.890625 -66.625 C 42.210938 -66.625 47.582031 -65.382812 52 -62.90625 C 56.414062 -60.4375 59.566406 -56.671875 61.453125 -51.609375 L 51.96875 -45.828125 L 50.859375 -45.859375 C 49.441406 -49.273438 47.53125 -51.722656 45.125 -53.203125 C 42.71875 -54.691406 39.640625 -55.4375 35.890625 -55.4375 C 30.441406 -55.4375 26.1875 -53.628906 23.125 -50.015625 C 20.070312 -46.410156 18.546875 -40.6875 18.546875 -32.84375 C 18.546875 -25.019531 20.070312 -19.300781 23.125 -15.6875 C 26.1875 -12.082031 30.441406 -10.28125 35.890625 -10.28125 C 44.429688 -10.28125 49.660156 -14.429688 51.578125 -22.734375 L 52.6875 -22.734375 L 62.265625 -17.75 C 60.460938 -11.519531 57.390625 -6.847656 53.046875 -3.734375 C 48.710938 -0.617188 42.992188 0.9375 35.890625 0.9375 Z M 35.890625 0.9375 "/></g></g></g><g fill="#ffffff" fill-opacity="1"><g transform="translate(658.443392, 439.997429)"><g/></g></g><g fill="#ffffff" fill-opacity="1"><g transform="translate(680.138815, 439.997429)"><g><path d="M 21.515625 -65.671875 L 21.515625 -10.875 L 51.03125 -10.875 L 51.03125 0 L 8.53125 0 L 8.53125 -65.671875 Z M 21.515625 -65.671875 "/></g></g></g><g fill="#ffffff" fill-opacity="1"><g transform="translate(733.321784, 439.997429)"><g/></g></g><g fill="#ffffff" fill-opacity="1"><g transform="translate(755.017217, 439.997429)"><g><path d="M 21.515625 0 L 8.53125 0 L 8.53125 -65.671875 L 21.515625 -65.671875 Z M 21.515625 0 "/></g></g></g><g fill="#ffffff" fill-opacity="1"><g transform="translate(785.112316, 439.997429)"><g/></g></g><g fill="#ffffff" fill-opacity="1"><g transform="translate(806.807727, 439.997429)"><g><path d="M 33.921875 -65.671875 C 38.617188 -65.671875 42.632812 -64.8125 45.96875 -63.09375 C 49.3125 -61.375 51.835938 -58.960938 53.546875 -55.859375 C 55.253906 -52.765625 56.109375 -49.164062 56.109375 -45.0625 C 56.109375 -40.957031 55.253906 -37.363281 53.546875 -34.28125 C 51.835938 -31.195312 49.3125 -28.789062 45.96875 -27.0625 C 42.632812 -25.34375 38.617188 -24.484375 33.921875 -24.484375 L 21.515625 -24.484375 L 21.515625 0 L 8.53125 0 L 8.53125 -65.671875 Z M 32.203125 -34.765625 C 39.421875 -34.765625 43.03125 -38.195312 43.03125 -45.0625 C 43.03125 -51.945312 39.421875 -55.390625 32.203125 -55.390625 L 21.515625 -55.390625 L 21.515625 -34.765625 Z M 32.203125 -34.765625 "/></g></g></g><g fill="#ffffff" fill-opacity="1"><g transform="translate(866.818253, 439.997429)"><g/></g></g><g fill="#ffffff" fill-opacity="1"><g transform="translate(888.513686, 439.997429)"><g><path d="M 29.109375 0.9375 C 24.554688 0.9375 20.503906 0.378906 16.953125 -0.734375 C 13.410156 -1.859375 10.453125 -3.332031 8.078125 -5.15625 C 5.710938 -6.988281 3.90625 -9 2.65625 -11.1875 L 9.796875 -19.90625 L 10.921875 -19.90625 C 12.890625 -16.96875 15.394531 -14.628906 18.4375 -12.890625 C 21.476562 -11.148438 25.035156 -10.28125 29.109375 -10.28125 C 32.585938 -10.28125 35.207031 -11.015625 36.96875 -12.484375 C 38.738281 -13.953125 39.625 -15.972656 39.625 -18.546875 C 39.625 -20.109375 39.335938 -21.410156 38.765625 -22.453125 C 38.203125 -23.503906 37.257812 -24.40625 35.9375 -25.15625 C 34.625 -25.90625 32.84375 -26.550781 30.59375 -27.09375 L 22.140625 -29.015625 C 16.242188 -30.367188 11.847656 -32.609375 8.953125 -35.734375 C 6.066406 -38.867188 4.625 -42.9375 4.625 -47.9375 C 4.625 -51.644531 5.550781 -54.90625 7.40625 -57.71875 C 9.269531 -60.539062 11.972656 -62.726562 15.515625 -64.28125 C 19.066406 -65.84375 23.3125 -66.625 28.25 -66.625 C 33.3125 -66.625 37.644531 -65.957031 41.25 -64.625 C 44.863281 -63.289062 47.914062 -61.242188 50.40625 -58.484375 L 43.984375 -49.6875 L 42.859375 -49.6875 C 41.003906 -51.632812 38.878906 -53.09375 36.484375 -54.0625 C 34.085938 -55.039062 31.34375 -55.53125 28.25 -55.53125 C 24.6875 -55.53125 21.976562 -54.898438 20.125 -53.640625 C 18.269531 -52.378906 17.34375 -50.640625 17.34375 -48.421875 C 17.34375 -46.359375 17.992188 -44.710938 19.296875 -43.484375 C 20.597656 -42.253906 22.851562 -41.296875 26.0625 -40.609375 L 34.6875 -38.8125 C 41.0625 -37.46875 45.6875 -35.1875 48.5625 -31.96875 C 51.4375 -28.75 52.875 -24.546875 52.875 -19.359375 C 52.875 -15.253906 51.988281 -11.679688 50.21875 -8.640625 C 48.457031 -5.609375 45.789062 -3.253906 42.21875 -1.578125 C 38.65625 0.0976562 34.285156 0.9375 29.109375 0.9375 Z M 29.109375 0.9375 "/></g></g></g><g fill="#ffffff" fill-opacity="1"><g transform="translate(944.930767, 439.997429)"><g/></g></g><g fill="#ffffff" fill-opacity="1"><g transform="translate(966.6262, 439.997429)"><g><path d="M 21.515625 -28.84375 L 21.515625 -10.875 L 52.875 -10.875 L 52.875 0 L 8.53125 0 L 8.53125 -65.671875 L 52.15625 -65.671875 L 52.15625 -54.8125 L 21.515625 -54.8125 L 21.515625 -39.4375 L 48.296875 -39.4375 L 48.296875 -28.84375 Z M 21.515625 -28.84375 "/></g></g></g></svg>