<svg xmlns="http://www.w3.org/2000/svg" xmlns:xlink="http://www.w3.org/1999/xlink" width="877" zoomAndPan="magnify" viewBox="0 0 657.75 165.000002" height="220" preserveAspectRatio="xMidYMid meet" version="1.0"><defs><g/><clipPath id="20e69ee711"><path d="M 19.003906 11.503906 L 115.171875 11.503906 L 115.171875 150.910156 L 19.003906 150.910156 Z M 19.003906 11.503906 " clip-rule="nonzero"/></clipPath><clipPath id="e19d1578e4"><path d="M 1.855469 0 L 655.644531 0 L 655.644531 164.007812 L 1.855469 164.007812 Z M 1.855469 0 " clip-rule="nonzero"/></clipPath></defs><g clip-path="url(#20e69ee711)"><path fill="#000000" d="M 114 142.546875 L 109.632812 142.546875 L 109.632812 138.210938 C 109.632812 137.601562 109.140625 137.105469 108.527344 137.105469 L 106.859375 137.105469 L 106.859375 134.125 C 106.859375 133.511719 106.367188 133.019531 105.753906 133.019531 L 103.421875 133.019531 L 103.421875 118.4375 L 106.433594 115.3125 L 106.445312 115.296875 C 106.488281 115.253906 106.503906 115.199219 106.539062 115.152344 C 106.585938 115.085938 106.640625 115.023438 106.671875 114.945312 C 106.78125 114.679688 106.78125 114.378906 106.671875 114.109375 C 106.640625 114.035156 106.585938 113.972656 106.539062 113.90625 C 106.503906 113.859375 106.488281 113.804688 106.445312 113.761719 L 106.433594 113.746094 L 103.398438 110.59375 L 103.398438 104.066406 C 103.398438 103.453125 102.90625 102.960938 102.292969 102.960938 L 98.972656 102.960938 L 98.972656 94.261719 L 99.507812 94.261719 C 100.117188 94.261719 100.613281 93.765625 100.613281 93.15625 L 100.613281 88.753906 C 100.613281 88.144531 100.117188 87.648438 99.507812 87.648438 L 98.25 87.648438 C 98.300781 86.601562 98.253906 85.191406 97.746094 84.3125 C 97.695312 84.222656 97.617188 84.144531 97.558594 84.058594 C 97.535156 84.027344 97.519531 83.992188 97.488281 83.960938 C 97.210938 83.578125 96.882812 83.207031 96.453125 82.871094 C 96.160156 82.640625 95.980469 82.300781 95.953125 81.910156 C 95.902344 81.195312 95.707031 80.597656 95.371094 80.136719 C 95.027344 79.65625 94.511719 79.292969 93.835938 79.054688 C 93.480469 78.929688 93.222656 78.695312 93.132812 78.410156 C 92.347656 75.902344 91.160156 75.277344 90.242188 75.214844 L 90.242188 66.34375 C 90.242188 65.992188 90.074219 65.660156 89.789062 65.449219 L 87.488281 63.773438 L 87.488281 62.324219 C 87.488281 61.714844 86.996094 61.21875 86.382812 61.21875 L 85.335938 61.21875 C 85.375 60.265625 85.316406 59.011719 84.859375 58.21875 C 84.804688 58.128906 84.726562 58.042969 84.664062 57.953125 C 84.644531 57.933594 84.632812 57.90625 84.613281 57.886719 C 84.355469 57.53125 84.050781 57.1875 83.65625 56.878906 C 83.410156 56.6875 83.261719 56.398438 83.234375 56.070312 C 83.210938 55.707031 83.136719 55.382812 83.03125 55.085938 C 83.191406 47.957031 80.878906 42.078125 76.164062 37.582031 L 76.164062 34.34375 C 76.164062 33.730469 75.671875 33.234375 75.058594 33.234375 L 74.167969 33.234375 C 73.988281 31.269531 73.316406 29.601562 72.132812 28.167969 L 73.089844 24.851562 C 73.183594 24.519531 73.117188 24.160156 72.910156 23.882812 C 72.703125 23.605469 72.375 23.441406 72.027344 23.441406 L 71.589844 23.441406 L 71.035156 21.085938 C 72.207031 17.347656 71.058594 14.058594 67.730469 11.808594 C 67.359375 11.554688 66.867188 11.554688 66.496094 11.808594 C 63.167969 14.0625 62.019531 17.347656 63.191406 21.085938 L 62.636719 23.441406 L 62.199219 23.441406 C 61.855469 23.441406 61.527344 23.605469 61.320312 23.882812 C 61.109375 24.160156 61.042969 24.519531 61.140625 24.851562 L 62.09375 28.167969 C 60.914062 29.601562 60.242188 31.269531 60.0625 33.234375 L 59.167969 33.234375 C 58.558594 33.234375 58.066406 33.730469 58.066406 34.34375 L 58.066406 37.582031 C 53.351562 42.078125 51.035156 47.960938 51.199219 55.089844 C 51.09375 55.386719 51.019531 55.707031 50.992188 56.070312 C 50.96875 56.398438 50.820312 56.6875 50.570312 56.882812 C 50.179688 57.1875 49.871094 57.53125 49.613281 57.886719 C 49.59375 57.90625 49.582031 57.929688 49.566406 57.953125 C 49.503906 58.042969 49.421875 58.128906 49.367188 58.222656 C 48.910156 59.015625 48.851562 60.265625 48.890625 61.222656 L 47.84375 61.222656 C 47.234375 61.222656 46.738281 61.714844 46.738281 62.328125 L 46.738281 63.773438 L 44.441406 65.453125 C 44.152344 65.660156 43.984375 65.992188 43.984375 66.34375 L 43.984375 75.214844 C 43.070312 75.277344 41.878906 75.902344 41.089844 78.414062 C 41.003906 78.695312 40.75 78.929688 40.394531 79.054688 C 39.714844 79.292969 39.199219 79.65625 38.855469 80.132812 C 38.519531 80.597656 38.324219 81.195312 38.273438 81.910156 C 38.246094 82.300781 38.066406 82.640625 37.773438 82.871094 C 37.34375 83.207031 37.015625 83.578125 36.738281 83.964844 C 36.707031 83.992188 36.691406 84.03125 36.667969 84.0625 C 36.609375 84.144531 36.535156 84.226562 36.484375 84.3125 C 35.972656 85.191406 35.925781 86.601562 35.976562 87.648438 L 34.71875 87.648438 C 34.109375 87.648438 33.617188 88.144531 33.617188 88.753906 L 33.617188 93.15625 C 33.617188 93.765625 34.109375 94.261719 34.71875 94.261719 L 35.253906 94.261719 L 35.253906 102.960938 L 31.933594 102.960938 C 31.324219 102.960938 30.828125 103.457031 30.828125 104.066406 L 30.828125 110.59375 L 27.792969 113.75 L 27.78125 113.761719 C 27.738281 113.804688 27.722656 113.859375 27.6875 113.90625 C 27.640625 113.972656 27.589844 114.035156 27.554688 114.113281 C 27.445312 114.378906 27.445312 114.679688 27.554688 114.949219 C 27.585938 115.027344 27.640625 115.085938 27.6875 115.152344 C 27.722656 115.203125 27.742188 115.253906 27.78125 115.296875 L 27.792969 115.3125 L 30.804688 118.4375 L 30.804688 133.019531 L 28.472656 133.019531 C 27.863281 133.019531 27.367188 133.515625 27.367188 134.125 L 27.367188 137.109375 L 25.699219 137.109375 C 25.089844 137.109375 24.59375 137.601562 24.59375 138.214844 L 24.59375 142.546875 L 20.226562 142.546875 C 19.617188 142.546875 19.125 143.042969 19.125 143.652344 L 19.125 149.804688 C 19.125 150.417969 19.617188 150.910156 20.226562 150.910156 L 114 150.910156 C 114.609375 150.910156 115.101562 150.417969 115.101562 149.804688 L 115.101562 143.652344 C 115.101562 143.039062 114.609375 142.546875 114 142.546875 Z M 88.171875 133.019531 L 88.171875 125.183594 C 88.171875 124.273438 87.898438 123.429688 87.445312 122.710938 L 90.96875 122.710938 C 90.519531 123.433594 90.246094 124.273438 90.246094 125.183594 L 90.246094 133.019531 Z M 77.425781 133.019531 L 77.425781 125.183594 C 77.425781 124.273438 77.15625 123.429688 76.703125 122.710938 L 79.445312 122.710938 C 78.996094 123.433594 78.722656 124.273438 78.722656 125.183594 L 78.722656 133.019531 Z M 66.246094 133.019531 L 66.246094 125.183594 C 66.246094 124.273438 65.972656 123.429688 65.519531 122.710938 L 68.703125 122.710938 C 68.253906 123.433594 67.980469 124.273438 67.980469 125.183594 L 67.980469 133.019531 Z M 55.503906 133.019531 L 55.503906 125.183594 C 55.503906 124.273438 55.230469 123.429688 54.777344 122.710938 L 57.523438 122.710938 C 57.070312 123.433594 56.800781 124.273438 56.800781 125.183594 L 56.800781 133.019531 Z M 43.980469 133.019531 L 43.980469 125.183594 C 43.980469 124.273438 43.710938 123.429688 43.253906 122.710938 L 46.777344 122.710938 C 46.328125 123.433594 46.058594 124.273438 46.058594 125.183594 L 46.058594 133.019531 Z M 101.191406 109.933594 L 33.039062 109.933594 L 33.039062 108.660156 L 101.191406 108.660156 Z M 32.402344 112.144531 L 101.824219 112.144531 L 103.054688 113.421875 L 31.171875 113.421875 Z M 103.054688 115.632812 L 101.824219 116.910156 L 32.402344 116.910156 L 31.171875 115.632812 Z M 33.015625 119.121094 L 101.214844 119.121094 L 101.214844 120.5 L 33.015625 120.5 Z M 36.742188 125.183594 C 36.742188 123.820312 37.847656 122.710938 39.304688 122.710938 C 40.664062 122.710938 41.773438 123.820312 41.773438 125.183594 L 41.773438 133.019531 L 36.742188 133.019531 Z M 48.261719 125.183594 C 48.261719 123.820312 49.371094 122.710938 50.824219 122.710938 C 52.1875 122.710938 53.292969 123.820312 53.292969 125.183594 L 53.292969 133.019531 L 48.261719 133.019531 Z M 59.007812 125.183594 C 59.007812 123.820312 60.113281 122.710938 61.570312 122.710938 C 62.929688 122.710938 64.039062 123.820312 64.039062 125.183594 L 64.039062 133.019531 L 59.007812 133.019531 Z M 70.191406 125.183594 C 70.191406 123.820312 71.296875 122.710938 72.75 122.710938 C 74.113281 122.710938 75.21875 123.820312 75.21875 125.183594 L 75.21875 133.019531 L 70.1875 133.019531 L 70.1875 125.183594 Z M 80.933594 125.183594 C 80.933594 123.820312 82.039062 122.710938 83.496094 122.710938 C 84.855469 122.710938 85.960938 123.820312 85.960938 125.183594 L 85.960938 133.019531 L 80.929688 133.019531 L 80.929688 125.183594 Z M 92.457031 125.183594 C 92.457031 123.820312 93.5625 122.710938 95.019531 122.710938 C 96.378906 122.710938 97.484375 123.820312 97.484375 125.183594 L 97.484375 133.019531 L 92.453125 133.019531 L 92.453125 125.183594 Z M 98.96875 122.710938 L 101.214844 122.710938 L 101.214844 133.015625 L 99.695312 133.015625 L 99.695312 125.183594 C 99.695312 124.273438 99.421875 123.429688 98.96875 122.710938 Z M 96.765625 102.957031 L 95.40625 102.957031 L 95.40625 94.257812 L 96.765625 94.257812 Z M 86.964844 102.957031 L 86.964844 93.597656 L 90.082031 90.347656 L 93.195312 93.597656 L 93.195312 102.957031 Z M 83.398438 102.957031 L 83.398438 94.257812 L 84.757812 94.257812 L 84.757812 102.957031 Z M 76.003906 102.957031 L 76.003906 94.257812 L 76.539062 94.257812 C 77.152344 94.257812 77.644531 93.765625 77.644531 93.152344 L 77.644531 92.058594 L 79.550781 92.058594 L 79.550781 93.152344 C 79.550781 93.765625 80.042969 94.257812 80.652344 94.257812 L 81.191406 94.257812 L 81.191406 102.957031 Z M 72.4375 102.957031 L 72.4375 94.257812 L 73.796875 94.257812 L 73.796875 102.957031 Z M 63.996094 102.957031 L 63.996094 93.597656 L 67.113281 90.347656 L 70.226562 93.597656 L 70.226562 102.957031 Z M 60.429688 102.957031 L 60.429688 94.257812 L 61.789062 94.257812 L 61.789062 102.957031 Z M 53.039062 102.957031 L 53.039062 94.257812 L 53.574219 94.257812 C 54.183594 94.257812 54.675781 93.765625 54.675781 93.152344 L 54.675781 92.058594 L 56.582031 92.058594 L 56.582031 93.152344 C 56.582031 93.765625 57.078125 94.257812 57.6875 94.257812 L 58.222656 94.257812 L 58.222656 102.957031 Z M 49.46875 102.957031 L 49.46875 94.257812 L 50.828125 94.257812 L 50.828125 102.957031 Z M 41.03125 102.957031 L 41.03125 93.597656 L 44.144531 90.347656 L 47.261719 93.597656 L 47.261719 102.957031 Z M 53.859375 63.433594 L 52.128906 65.238281 L 48.949219 65.238281 L 48.949219 63.433594 Z M 59.628906 39.136719 L 74.597656 39.136719 C 78.496094 42.828125 80.539062 47.414062 80.796875 53.097656 C 80.738281 53.027344 80.6875 52.953125 80.65625 52.855469 C 79.882812 50.378906 78.664062 49.859375 77.777344 49.859375 C 77.117188 49.859375 75.894531 50.128906 75.097656 51.953125 C 74.992188 52.195312 74.757812 52.386719 74.464844 52.472656 C 74.097656 52.582031 73.757812 52.742188 73.457031 52.941406 L 60.769531 52.941406 C 60.46875 52.742188 60.132812 52.582031 59.761719 52.472656 C 59.464844 52.382812 59.234375 52.195312 59.128906 51.949219 C 58.332031 50.128906 57.109375 49.859375 56.449219 49.859375 C 55.5625 49.859375 54.34375 50.378906 53.570312 52.855469 C 53.542969 52.953125 53.488281 53.027344 53.429688 53.09375 C 53.6875 47.414062 55.730469 42.828125 59.628906 39.136719 Z M 73.953125 35.449219 L 73.953125 36.925781 L 60.273438 36.925781 L 60.273438 35.449219 Z M 85.28125 63.433594 L 85.28125 65.238281 L 82.101562 65.238281 L 80.367188 63.433594 Z M 85.390625 92.046875 L 81.757812 92.046875 L 81.757812 89.859375 L 87.492188 89.859375 Z M 80.652344 87.648438 C 80.042969 87.648438 79.550781 88.140625 79.550781 88.753906 L 79.550781 89.847656 L 77.644531 89.847656 L 77.644531 88.753906 C 77.644531 88.140625 77.152344 87.648438 76.539062 87.648438 L 75.953125 87.648438 C 75.9375 87.296875 75.90625 86.910156 75.851562 86.492188 L 81.339844 86.492188 C 81.285156 86.910156 81.257812 87.296875 81.242188 87.648438 Z M 71.804688 92.046875 L 69.703125 89.859375 L 75.4375 89.859375 L 75.4375 92.046875 Z M 62.425781 92.046875 L 58.792969 92.046875 L 58.792969 89.859375 L 64.523438 89.859375 Z M 61.222656 85.855469 L 66.539062 85.855469 C 67.148438 85.855469 67.640625 85.363281 67.640625 84.75 C 67.640625 84.140625 67.148438 83.644531 66.539062 83.644531 L 62.933594 83.644531 C 63.214844 83.171875 63.402344 82.636719 63.445312 82.070312 C 63.472656 81.664062 63.574219 81.484375 63.613281 81.429688 C 63.648438 81.378906 63.765625 81.257812 64.089844 81.140625 C 65.113281 80.785156 65.867188 80.03125 66.167969 79.074219 C 66.597656 77.699219 67.042969 77.414062 67.113281 77.414062 C 67.492188 77.414062 67.8125 78.046875 67.929688 78.316406 C 68.246094 79.035156 68.820312 79.601562 69.539062 79.953125 L 68.34375 79.953125 C 67.730469 79.953125 67.238281 80.445312 67.238281 81.058594 C 67.238281 81.667969 67.730469 82.164062 68.34375 82.164062 L 71.117188 82.164062 C 71.121094 82.175781 71.125 82.1875 71.125 82.199219 C 71.242188 83.171875 71.773438 84.0625 72.628906 84.601562 C 72.816406 84.71875 72.988281 84.875 73.136719 85.058594 C 73.496094 85.5 73.679688 86.632812 73.738281 87.644531 L 61.15625 87.644531 C 61.121094 87.003906 61.132812 86.328125 61.222656 85.855469 Z M 61.40625 75.203125 L 61.40625 67.449219 L 62.804688 67.449219 L 62.804688 75.203125 Z M 53.699219 75.203125 L 53.699219 66.789062 L 56.449219 63.921875 L 59.199219 66.789062 L 59.199219 75.203125 Z M 65.011719 67.449219 L 65.054688 67.449219 C 65.667969 67.449219 66.160156 66.957031 66.160156 66.34375 L 66.160156 65.441406 L 68.066406 65.441406 L 68.066406 66.34375 C 68.066406 66.957031 68.558594 67.449219 69.171875 67.449219 L 69.214844 67.449219 L 69.214844 75.203125 L 65.011719 75.203125 Z M 72.820312 67.449219 L 72.820312 75.203125 L 71.421875 75.203125 L 71.421875 67.449219 Z M 80.527344 75.203125 L 75.03125 75.203125 L 75.03125 66.789062 L 77.777344 63.921875 L 80.527344 66.789062 Z M 82.339844 83.667969 C 82.191406 83.851562 82.0625 84.058594 81.953125 84.28125 L 75.242188 84.28125 C 75.128906 84.058594 75 83.847656 74.851562 83.664062 C 74.679688 83.453125 74.488281 83.265625 74.289062 83.09375 L 82.90625 83.09375 C 82.703125 83.265625 82.511719 83.453125 82.339844 83.667969 Z M 84.550781 79.351562 C 84.226562 79.773438 84.035156 80.292969 83.953125 80.882812 L 73.242188 80.882812 C 73.160156 80.289062 72.964844 79.773438 72.644531 79.351562 C 72.179688 78.746094 71.511719 78.300781 70.710938 78.058594 C 70.359375 77.953125 70.082031 77.726562 69.953125 77.429688 C 69.949219 77.421875 69.945312 77.417969 69.945312 77.414062 L 87.25 77.414062 C 87.246094 77.421875 87.246094 77.425781 87.242188 77.429688 C 87.113281 77.726562 86.835938 77.953125 86.484375 78.058594 C 85.683594 78.300781 85.015625 78.746094 84.550781 79.351562 Z M 82.734375 75.203125 L 82.734375 67.449219 L 84.203125 67.449219 L 84.203125 75.203125 Z M 73.453125 65.238281 L 70.273438 65.238281 L 70.273438 63.433594 L 75.1875 63.433594 Z M 72.085938 55.152344 C 72.050781 55.40625 72.03125 55.675781 72.046875 55.960938 C 72.0625 56.265625 71.894531 56.570312 71.613281 56.746094 C 71.402344 56.878906 71.210938 57.039062 71.023438 57.210938 L 63.203125 57.210938 C 63.019531 57.039062 62.824219 56.878906 62.613281 56.746094 C 62.332031 56.570312 62.164062 56.261719 62.179688 55.960938 C 62.195312 55.671875 62.175781 55.40625 62.140625 55.152344 Z M 64.371094 59.425781 L 69.855469 59.425781 C 69.710938 60.054688 69.644531 60.6875 69.617188 61.222656 L 69.171875 61.222656 C 68.558594 61.222656 68.066406 61.714844 68.066406 62.328125 L 68.066406 63.230469 L 66.160156 63.230469 L 66.160156 62.328125 C 66.160156 61.714844 65.667969 61.222656 65.054688 61.222656 L 64.613281 61.222656 C 64.585938 60.6875 64.515625 60.054688 64.371094 59.425781 Z M 63.953125 63.433594 L 63.953125 65.238281 L 60.773438 65.238281 L 59.039062 63.433594 Z M 50.023438 67.449219 L 51.492188 67.449219 L 51.492188 75.203125 L 50.023438 75.203125 Z M 64.441406 77.414062 C 64.308594 77.710938 64.179688 78.035156 64.0625 78.410156 C 63.972656 78.695312 63.714844 78.929688 63.359375 79.054688 C 62.683594 79.289062 62.167969 79.65625 61.824219 80.132812 C 61.664062 80.351562 61.542969 80.605469 61.449219 80.882812 L 50.273438 80.882812 C 50.191406 80.292969 50 79.773438 49.675781 79.351562 C 49.210938 78.746094 48.546875 78.300781 47.746094 78.058594 C 47.394531 77.953125 47.113281 77.722656 46.988281 77.429688 C 46.984375 77.421875 46.980469 77.417969 46.976562 77.414062 Z M 60.5 83.09375 C 60.1875 83.367188 59.921875 83.65625 59.703125 83.960938 C 59.683594 83.984375 59.671875 84.011719 59.652344 84.035156 C 59.59375 84.117188 59.519531 84.195312 59.46875 84.28125 L 52.273438 84.28125 C 52.164062 84.058594 52.035156 83.851562 51.886719 83.667969 C 51.714844 83.453125 51.523438 83.265625 51.320312 83.09375 Z M 52.886719 86.492188 L 58.945312 86.492188 C 58.925781 86.898438 58.929688 87.292969 58.945312 87.648438 L 57.6875 87.648438 C 57.078125 87.648438 56.582031 88.140625 56.582031 88.753906 L 56.582031 89.847656 L 54.675781 89.847656 L 54.675781 88.753906 C 54.675781 88.140625 54.183594 87.648438 53.574219 87.648438 L 52.984375 87.648438 C 52.96875 87.296875 52.941406 86.910156 52.886719 86.492188 Z M 52.46875 89.859375 L 52.46875 92.046875 L 48.835938 92.046875 L 46.738281 89.859375 Z M 98.402344 92.046875 L 94.769531 92.046875 L 92.671875 89.859375 L 98.40625 89.859375 L 98.40625 92.046875 Z M 93.105469 81.140625 C 93.332031 81.222656 93.507812 81.328125 93.582031 81.429688 C 93.625 81.488281 93.722656 81.664062 93.753906 82.070312 C 93.792969 82.636719 93.980469 83.171875 94.261719 83.644531 L 90.65625 83.644531 C 90.046875 83.644531 89.554688 84.140625 89.554688 84.75 C 89.554688 85.363281 90.046875 85.855469 90.65625 85.855469 L 95.96875 85.855469 C 96.054688 86.3125 96.074219 86.976562 96.039062 87.648438 L 83.453125 87.648438 C 83.511719 86.636719 83.695312 85.503906 84.054688 85.058594 C 84.207031 84.875 84.375 84.71875 84.5625 84.601562 C 85.421875 84.0625 85.953125 83.171875 86.070312 82.203125 C 86.082031 82.128906 86.113281 82.066406 86.113281 81.988281 C 86.113281 81.957031 86.097656 81.933594 86.09375 81.902344 C 86.097656 81.820312 86.117188 81.742188 86.113281 81.660156 C 86.089844 81.226562 86.160156 80.882812 86.304688 80.695312 C 86.484375 80.457031 86.757812 80.285156 87.113281 80.175781 C 88.089844 79.886719 88.875 79.207031 89.261719 78.316406 C 89.382812 78.042969 89.699219 77.410156 90.078125 77.410156 C 90.1875 77.410156 90.632812 77.820312 91.023438 79.070312 C 91.324219 80.03125 92.082031 80.785156 93.105469 81.140625 Z M 88.035156 75.203125 L 86.410156 75.203125 L 86.410156 67.445312 C 86.957031 67.429688 87.386719 67.019531 87.457031 66.488281 L 88.03125 66.90625 L 88.03125 75.203125 Z M 71.828125 61.222656 C 71.890625 60.328125 72.058594 59.378906 72.351562 59.015625 C 72.480469 58.855469 72.628906 58.71875 72.789062 58.621094 C 73.75 58.015625 74.308594 56.953125 74.25 55.847656 C 74.230469 55.476562 74.285156 55.183594 74.40625 55.03125 C 74.558594 54.832031 74.789062 54.683594 75.097656 54.59375 C 76.015625 54.316406 76.753906 53.679688 77.121094 52.839844 C 77.28125 52.46875 77.539062 52.070312 77.761719 52.070312 C 77.839844 52.097656 78.207031 52.429688 78.550781 53.519531 C 78.832031 54.421875 79.542969 55.132812 80.507812 55.472656 C 80.726562 55.550781 80.851562 55.640625 80.894531 55.699219 C 80.921875 55.734375 81.007812 55.878906 81.03125 56.234375 C 81.066406 56.707031 81.199219 57.164062 81.414062 57.570312 L 78.304688 57.570312 C 77.695312 57.570312 77.199219 58.066406 77.199219 58.675781 C 77.199219 59.285156 77.695312 59.78125 78.304688 59.78125 L 83.074219 59.78125 C 83.136719 60.164062 83.148438 60.691406 83.125 61.222656 Z M 64.148438 27.328125 L 63.667969 25.652344 L 70.558594 25.652344 L 70.074219 27.328125 Z M 65.160156 19.964844 C 65.039062 19.476562 64.96875 19.003906 64.953125 18.550781 L 69.273438 18.550781 C 69.257812 19.003906 69.191406 19.476562 69.066406 19.964844 Z M 67.113281 14.09375 C 67.9375 14.765625 68.515625 15.515625 68.875 16.335938 L 65.355469 16.335938 C 65.710938 15.515625 66.292969 14.765625 67.113281 14.09375 Z M 65.203125 22.175781 L 69.023438 22.175781 L 69.320312 23.441406 L 64.90625 23.441406 Z M 63.824219 29.539062 L 70.402344 29.539062 C 71.277344 30.585938 71.777344 31.789062 71.945312 33.234375 L 62.285156 33.234375 C 62.449219 31.789062 62.949219 30.585938 63.824219 29.539062 Z M 51.152344 59.777344 L 55.925781 59.777344 C 56.535156 59.777344 57.027344 59.285156 57.027344 58.671875 C 57.027344 58.0625 56.535156 57.566406 55.925781 57.566406 L 52.8125 57.566406 C 53.027344 57.160156 53.160156 56.707031 53.195312 56.234375 C 53.222656 55.875 53.308594 55.730469 53.332031 55.695312 C 53.375 55.636719 53.5 55.546875 53.722656 55.46875 C 54.683594 55.132812 55.398438 54.421875 55.675781 53.519531 C 56.019531 52.425781 56.386719 52.09375 56.449219 52.070312 C 56.6875 52.070312 56.945312 52.464844 57.109375 52.839844 C 57.476562 53.675781 58.210938 54.316406 59.132812 54.589844 C 59.4375 54.679688 59.667969 54.828125 59.820312 55.027344 C 59.941406 55.183594 59.996094 55.472656 59.976562 55.84375 C 59.917969 56.953125 60.476562 58.015625 61.4375 58.617188 C 61.597656 58.71875 61.746094 58.851562 61.875 59.015625 C 62.179688 59.390625 62.339844 60.339844 62.398438 61.21875 L 51.101562 61.21875 C 51.078125 60.6875 51.089844 60.160156 51.152344 59.777344 Z M 46.769531 66.488281 C 46.839844 67.019531 47.269531 67.429688 47.816406 67.445312 L 47.816406 75.203125 L 46.195312 75.203125 L 46.195312 66.90625 Z M 38.257812 85.855469 L 43.570312 85.855469 C 44.179688 85.855469 44.675781 85.363281 44.675781 84.75 C 44.675781 84.140625 44.179688 83.644531 43.570312 83.644531 L 39.964844 83.644531 C 40.25 83.171875 40.433594 82.636719 40.476562 82.070312 C 40.503906 81.664062 40.605469 81.488281 40.648438 81.425781 C 40.71875 81.328125 40.894531 81.222656 41.121094 81.140625 C 42.144531 80.785156 42.902344 80.03125 43.199219 79.074219 C 43.59375 77.820312 44.039062 77.414062 44.144531 77.414062 C 44.527344 77.414062 44.84375 78.042969 44.964844 78.316406 C 45.355469 79.207031 46.136719 79.886719 47.113281 80.179688 C 47.46875 80.285156 47.742188 80.460938 47.921875 80.695312 C 48.066406 80.886719 48.132812 81.226562 48.109375 81.660156 C 48.105469 81.742188 48.128906 81.820312 48.132812 81.902344 C 48.128906 81.933594 48.113281 81.957031 48.113281 81.988281 C 48.113281 82.0625 48.144531 82.128906 48.15625 82.203125 C 48.273438 83.171875 48.804688 84.0625 49.664062 84.601562 C 49.851562 84.71875 50.019531 84.875 50.167969 85.058594 C 50.527344 85.5 50.714844 86.632812 50.773438 87.648438 L 38.1875 87.648438 C 38.152344 86.976562 38.171875 86.3125 38.257812 85.855469 Z M 35.824219 89.859375 L 41.554688 89.859375 L 39.457031 92.046875 L 35.824219 92.046875 Z M 37.464844 94.257812 L 38.820312 94.257812 L 38.820312 102.957031 L 37.464844 102.957031 Z M 101.191406 105.167969 L 101.191406 106.445312 L 33.039062 106.445312 L 33.039062 105.167969 Z M 33.015625 122.710938 L 35.253906 122.710938 C 34.804688 123.429688 34.53125 124.273438 34.53125 125.183594 L 34.53125 133.015625 L 33.011719 133.015625 L 33.011719 122.710938 Z M 29.578125 135.230469 L 104.65625 135.230469 L 104.65625 137.0625 L 29.578125 137.0625 Z M 26.800781 139.316406 L 107.425781 139.316406 L 107.425781 142.546875 L 26.800781 142.546875 Z M 112.894531 148.699219 L 21.332031 148.699219 L 21.332031 144.757812 L 112.894531 144.757812 Z M 112.894531 148.699219 " fill-opacity="1" fill-rule="nonzero"/></g><g clip-path="url(#e19d1578e4)"><path stroke-linecap="butt" transform="matrix(0.745482, 0, 0, 0.745482, 1.856924, 0.00000994949)" fill="none" stroke-linejoin="miter" d="M -0.00195175 -0.0000133464 L 876.999968 -0.0000133464 L 876.999968 220.002392 L -0.00195175 220.002392 Z M -0.00195175 -0.0000133464 " stroke="#000000" stroke-width="8" stroke-opacity="1" stroke-miterlimit="4"/></g><g fill="#000000" fill-opacity="1"><g transform="translate(125.858332, 116.456678)"><g><path d="M 21.390625 -28.65625 L 21.390625 -10.796875 L 52.546875 -10.796875 L 52.546875 0 L 8.484375 0 L 8.484375 -65.28125 L 51.828125 -65.28125 L 51.828125 -54.46875 L 21.390625 -54.46875 L 21.390625 -39.203125 L 48 -39.203125 L 48 -28.65625 Z M 21.390625 -28.65625 "/></g></g></g><g fill="#000000" fill-opacity="1"><g transform="translate(181.980199, 116.456678)"><g/></g></g><g fill="#000000" fill-opacity="1"><g transform="translate(203.544927, 116.456678)"><g><path d="M 35.671875 0.9375 C 29.660156 0.9375 24.363281 -0.3125 19.78125 -2.8125 C 15.195312 -5.3125 11.609375 -9.066406 9.015625 -14.078125 C 6.429688 -19.097656 5.140625 -25.285156 5.140625 -32.640625 C 5.140625 -39.992188 6.429688 -46.175781 9.015625 -51.1875 C 11.609375 -56.207031 15.195312 -59.96875 19.78125 -62.46875 C 24.363281 -64.96875 29.660156 -66.21875 35.671875 -66.21875 C 41.953125 -66.21875 47.285156 -64.988281 51.671875 -62.53125 C 56.066406 -60.070312 59.203125 -56.328125 61.078125 -51.296875 L 51.65625 -45.546875 L 50.546875 -45.578125 C 49.140625 -48.972656 47.238281 -51.40625 44.84375 -52.875 C 42.445312 -54.351562 39.390625 -55.09375 35.671875 -55.09375 C 30.253906 -55.09375 26.023438 -53.296875 22.984375 -49.703125 C 19.953125 -46.117188 18.4375 -40.429688 18.4375 -32.640625 C 18.4375 -24.867188 19.953125 -19.1875 22.984375 -15.59375 C 26.023438 -12.007812 30.253906 -10.21875 35.671875 -10.21875 C 44.148438 -10.21875 49.34375 -14.34375 51.25 -22.59375 L 52.375 -22.59375 L 61.875 -17.640625 C 60.09375 -11.441406 57.039062 -6.796875 52.71875 -3.703125 C 48.40625 -0.609375 42.722656 0.9375 35.671875 0.9375 Z M 35.671875 0.9375 "/></g></g></g><g fill="#000000" fill-opacity="1"><g transform="translate(267.569396, 116.456678)"><g/></g></g><g fill="#000000" fill-opacity="1"><g transform="translate(289.134123, 116.456678)"><g><path d="M 21.390625 -65.28125 L 21.390625 -10.796875 L 50.71875 -10.796875 L 50.71875 0 L 8.484375 0 L 8.484375 -65.28125 Z M 21.390625 -65.28125 "/></g></g></g><g fill="#000000" fill-opacity="1"><g transform="translate(341.996714, 116.456678)"><g/></g></g><g fill="#000000" fill-opacity="1"><g transform="translate(363.561453, 116.456678)"><g><path d="M 21.390625 0 L 8.484375 0 L 8.484375 -65.28125 L 21.390625 -65.28125 Z M 21.390625 0 "/></g></g></g><g fill="#000000" fill-opacity="1"><g transform="translate(393.475257, 116.456678)"><g/></g></g><g fill="#000000" fill-opacity="1"><g transform="translate(415.039973, 116.456678)"><g><path d="M 33.703125 -65.28125 C 38.378906 -65.28125 42.375 -64.421875 45.6875 -62.703125 C 49.007812 -60.992188 51.519531 -58.597656 53.21875 -55.515625 C 54.914062 -52.429688 55.765625 -48.851562 55.765625 -44.78125 C 55.765625 -40.707031 54.914062 -37.132812 53.21875 -34.0625 C 51.519531 -31 49.007812 -28.609375 45.6875 -26.890625 C 42.375 -25.179688 38.378906 -24.328125 33.703125 -24.328125 L 21.390625 -24.328125 L 21.390625 0 L 8.484375 0 L 8.484375 -65.28125 Z M 32.015625 -34.5625 C 39.179688 -34.5625 42.765625 -37.96875 42.765625 -44.78125 C 42.765625 -51.625 39.179688 -55.046875 32.015625 -55.046875 L 21.390625 -55.046875 L 21.390625 -34.5625 Z M 32.015625 -34.5625 "/></g></g></g><g fill="#000000" fill-opacity="1"><g transform="translate(474.68899, 116.456678)"><g/></g></g><g fill="#000000" fill-opacity="1"><g transform="translate(496.253729, 116.456678)"><g><path d="M 28.9375 0.9375 C 24.40625 0.9375 20.375 0.378906 16.84375 -0.734375 C 13.320312 -1.847656 10.382812 -3.3125 8.03125 -5.125 C 5.6875 -6.945312 3.890625 -8.941406 2.640625 -11.109375 L 9.734375 -19.78125 L 10.84375 -19.78125 C 12.8125 -16.863281 15.304688 -14.539062 18.328125 -12.8125 C 21.347656 -11.082031 24.882812 -10.21875 28.9375 -10.21875 C 32.382812 -10.21875 34.984375 -10.945312 36.734375 -12.40625 C 38.492188 -13.863281 39.375 -15.875 39.375 -18.4375 C 39.375 -19.988281 39.09375 -21.285156 38.53125 -22.328125 C 37.96875 -23.367188 37.03125 -24.257812 35.71875 -25 C 34.40625 -25.75 32.632812 -26.390625 30.40625 -26.921875 L 22.015625 -28.84375 C 16.148438 -30.175781 11.78125 -32.398438 8.90625 -35.515625 C 6.03125 -38.628906 4.59375 -42.671875 4.59375 -47.640625 C 4.59375 -51.328125 5.515625 -54.566406 7.359375 -57.359375 C 9.210938 -60.160156 11.898438 -62.335938 15.421875 -63.890625 C 18.953125 -65.441406 23.171875 -66.21875 28.078125 -66.21875 C 33.109375 -66.21875 37.414062 -65.550781 41 -64.21875 C 44.59375 -62.894531 47.625 -60.863281 50.09375 -58.125 L 43.703125 -49.375 L 42.59375 -49.375 C 40.75 -51.3125 38.632812 -52.765625 36.25 -53.734375 C 33.875 -54.703125 31.148438 -55.1875 28.078125 -55.1875 C 24.535156 -55.1875 21.84375 -54.5625 20 -53.3125 C 18.15625 -52.0625 17.234375 -50.332031 17.234375 -48.125 C 17.234375 -46.070312 17.878906 -44.4375 19.171875 -43.21875 C 20.472656 -42 22.710938 -41.046875 25.890625 -40.359375 L 34.46875 -38.578125 C 40.8125 -37.234375 45.410156 -34.960938 48.265625 -31.765625 C 51.117188 -28.566406 52.546875 -24.394531 52.546875 -19.25 C 52.546875 -15.164062 51.664062 -11.613281 49.90625 -8.59375 C 48.15625 -5.570312 45.507812 -3.226562 41.96875 -1.5625 C 38.425781 0.101562 34.082031 0.9375 28.9375 0.9375 Z M 28.9375 0.9375 "/></g></g></g><g fill="#000000" fill-opacity="1"><g transform="translate(552.330949, 116.456678)"><g/></g></g><g fill="#000000" fill-opacity="1"><g transform="translate(573.895687, 116.456678)"><g><path d="M 21.390625 -28.65625 L 21.390625 -10.796875 L 52.546875 -10.796875 L 52.546875 0 L 8.484375 0 L 8.484375 -65.28125 L 51.828125 -65.28125 L 51.828125 -54.46875 L 21.390625 -54.46875 L 21.390625 -39.203125 L 48 -39.203125 L 48 -28.65625 Z M 21.390625 -28.65625 "/></g></g></g></svg>