<svg xmlns="http://www.w3.org/2000/svg" xmlns:xlink="http://www.w3.org/1999/xlink" width="243" zoomAndPan="magnify" viewBox="0 0 182.25 182.250001" height="243" preserveAspectRatio="xMidYMid meet" version="1.0"><defs><clipPath id="3e9868db1a"><path d="M 42.613281 13.769531 L 138.964844 13.769531 L 138.964844 153.445312 L 42.613281 153.445312 Z M 42.613281 13.769531 " clip-rule="nonzero"/></clipPath><clipPath id="f7b5590a98"><path d="M 0 0 L 181.503906 0 L 181.503906 181.503906 L 0 181.503906 Z M 0 0 " clip-rule="nonzero"/></clipPath><clipPath id="55c2e31a8a"><path d="M 90.75 0 C 40.628906 0 0 40.628906 0 90.75 C 0 140.871094 40.628906 181.503906 90.75 181.503906 C 140.871094 181.503906 181.503906 140.871094 181.503906 90.75 C 181.503906 40.628906 140.871094 0 90.75 0 Z M 90.75 0 " clip-rule="nonzero"/></clipPath></defs><g clip-path="url(#3e9868db1a)"><path fill="#000000" d="M 137.792969 145.0625 L 133.417969 145.0625 L 133.417969 140.722656 C 133.417969 140.109375 132.921875 139.613281 132.3125 139.613281 L 130.636719 139.613281 L 130.636719 136.625 C 130.636719 136.011719 130.144531 135.515625 129.53125 135.515625 L 127.195312 135.515625 L 127.195312 120.90625 L 130.210938 117.773438 L 130.222656 117.761719 C 130.265625 117.71875 130.285156 117.664062 130.316406 117.617188 C 130.363281 117.550781 130.417969 117.488281 130.449219 117.410156 C 130.558594 117.140625 130.558594 116.839844 130.449219 116.574219 C 130.417969 116.496094 130.363281 116.433594 130.316406 116.367188 C 130.285156 116.320312 130.265625 116.265625 130.222656 116.222656 L 130.210938 116.207031 L 127.171875 113.050781 L 127.171875 106.507812 C 127.171875 105.894531 126.675781 105.398438 126.066406 105.398438 L 122.734375 105.398438 L 122.734375 96.683594 L 123.273438 96.683594 C 123.882812 96.683594 124.378906 96.1875 124.378906 95.578125 L 124.378906 91.167969 C 124.378906 90.554688 123.882812 90.058594 123.273438 90.058594 L 122.011719 90.058594 C 122.0625 89.011719 122.015625 87.59375 121.503906 86.714844 C 121.457031 86.628906 121.378906 86.546875 121.320312 86.460938 C 121.296875 86.429688 121.277344 86.394531 121.25 86.367188 C 120.972656 85.980469 120.640625 85.609375 120.210938 85.273438 C 119.917969 85.042969 119.742188 84.699219 119.710938 84.308594 C 119.660156 83.59375 119.460938 82.996094 119.128906 82.53125 C 118.785156 82.050781 118.265625 81.6875 117.589844 81.449219 C 117.230469 81.324219 116.976562 81.089844 116.886719 80.804688 C 116.101562 78.292969 114.90625 77.664062 113.988281 77.601562 L 113.988281 68.714844 C 113.988281 68.359375 113.820312 68.027344 113.535156 67.820312 L 111.230469 66.136719 L 111.230469 64.6875 C 111.230469 64.074219 110.734375 63.578125 110.125 63.578125 L 109.074219 63.578125 C 109.113281 62.621094 109.054688 61.367188 108.59375 60.574219 C 108.542969 60.480469 108.460938 60.398438 108.398438 60.308594 C 108.378906 60.285156 108.371094 60.257812 108.347656 60.238281 C 108.089844 59.882812 107.785156 59.539062 107.390625 59.230469 C 107.144531 59.035156 106.996094 58.75 106.96875 58.417969 C 106.941406 58.054688 106.867188 57.730469 106.765625 57.433594 C 106.925781 50.292969 104.605469 44.398438 99.882812 39.894531 L 99.882812 36.648438 C 99.882812 36.039062 99.390625 35.542969 98.777344 35.542969 L 97.882812 35.542969 C 97.703125 33.570312 97.03125 31.898438 95.847656 30.460938 L 96.800781 27.140625 C 96.898438 26.808594 96.832031 26.449219 96.621094 26.167969 C 96.414062 25.890625 96.085938 25.726562 95.738281 25.726562 L 95.300781 25.726562 L 94.742188 23.371094 C 95.921875 19.625 94.769531 16.328125 91.4375 14.070312 C 91.0625 13.816406 90.570312 13.816406 90.195312 14.070312 C 86.863281 16.328125 85.710938 19.625 86.886719 23.371094 L 86.332031 25.726562 L 85.894531 25.726562 C 85.546875 25.726562 85.21875 25.890625 85.011719 26.167969 C 84.800781 26.449219 84.734375 26.808594 84.832031 27.140625 L 85.785156 30.460938 C 84.605469 31.898438 83.929688 33.570312 83.75 35.542969 L 82.855469 35.542969 C 82.242188 35.542969 81.75 36.039062 81.75 36.648438 L 81.75 39.894531 C 77.027344 44.398438 74.707031 50.292969 74.867188 57.4375 C 74.765625 57.734375 74.691406 58.058594 74.664062 58.421875 C 74.640625 58.75 74.488281 59.039062 74.242188 59.230469 C 73.847656 59.539062 73.542969 59.882812 73.28125 60.238281 C 73.261719 60.257812 73.25 60.285156 73.234375 60.304688 C 73.171875 60.394531 73.089844 60.484375 73.035156 60.574219 C 72.574219 61.371094 72.519531 62.621094 72.558594 63.582031 L 71.507812 63.582031 C 70.894531 63.582031 70.402344 64.078125 70.402344 64.6875 L 70.402344 66.136719 L 68.097656 67.820312 C 67.8125 68.027344 67.644531 68.359375 67.644531 68.714844 L 67.644531 77.601562 C 66.722656 77.664062 65.53125 78.292969 64.742188 80.808594 C 64.65625 81.089844 64.398438 81.324219 64.042969 81.449219 C 63.367188 81.6875 62.847656 82.050781 62.503906 82.53125 C 62.167969 82.996094 61.972656 83.59375 61.917969 84.308594 C 61.890625 84.699219 61.714844 85.042969 61.417969 85.273438 C 60.988281 85.609375 60.65625 85.980469 60.382812 86.367188 C 60.351562 86.394531 60.335938 86.433594 60.308594 86.464844 C 60.25 86.550781 60.175781 86.628906 60.128906 86.714844 C 59.617188 87.59375 59.570312 89.011719 59.621094 90.058594 L 58.359375 90.058594 C 57.746094 90.058594 57.253906 90.554688 57.253906 91.167969 L 57.253906 95.578125 C 57.253906 96.191406 57.746094 96.683594 58.359375 96.683594 L 58.894531 96.683594 L 58.894531 105.402344 L 55.566406 105.402344 C 54.957031 105.402344 54.460938 105.894531 54.460938 106.507812 L 54.460938 113.050781 L 51.421875 116.210938 L 51.40625 116.222656 C 51.363281 116.265625 51.347656 116.320312 51.3125 116.371094 C 51.269531 116.4375 51.214844 116.496094 51.179688 116.574219 C 51.070312 116.84375 51.070312 117.144531 51.179688 117.414062 C 51.210938 117.488281 51.265625 117.550781 51.3125 117.617188 C 51.347656 117.664062 51.367188 117.71875 51.40625 117.761719 L 51.421875 117.777344 L 54.4375 120.910156 L 54.4375 135.519531 L 52.101562 135.519531 C 51.488281 135.519531 50.992188 136.011719 50.992188 136.625 L 50.992188 139.617188 L 49.320312 139.617188 C 48.707031 139.617188 48.214844 140.109375 48.214844 140.722656 L 48.214844 145.066406 L 43.839844 145.066406 C 43.226562 145.066406 42.734375 145.558594 42.734375 146.171875 L 42.734375 152.335938 C 42.734375 152.949219 43.226562 153.445312 43.839844 153.445312 L 137.792969 153.445312 C 138.402344 153.445312 138.898438 152.949219 138.898438 152.335938 L 138.898438 146.171875 C 138.898438 145.558594 138.402344 145.0625 137.792969 145.0625 Z M 111.914062 135.515625 L 111.914062 127.667969 C 111.914062 126.753906 111.640625 125.910156 111.1875 125.191406 L 114.71875 125.191406 C 114.265625 125.910156 113.996094 126.753906 113.996094 127.667969 L 113.996094 135.515625 Z M 101.148438 135.515625 L 101.148438 127.667969 C 101.148438 126.753906 100.878906 125.910156 100.421875 125.191406 L 103.171875 125.191406 C 102.722656 125.910156 102.449219 126.753906 102.449219 127.667969 L 102.449219 135.515625 Z M 89.945312 135.515625 L 89.945312 127.667969 C 89.945312 126.753906 89.671875 125.910156 89.21875 125.191406 L 92.40625 125.191406 C 91.957031 125.910156 91.683594 126.753906 91.683594 127.667969 L 91.683594 135.515625 Z M 79.183594 135.515625 L 79.183594 127.667969 C 79.183594 126.753906 78.910156 125.910156 78.457031 125.191406 L 81.207031 125.191406 C 80.753906 125.910156 80.480469 126.753906 80.480469 127.667969 L 80.480469 135.515625 Z M 67.636719 135.515625 L 67.636719 127.667969 C 67.636719 126.753906 67.367188 125.910156 66.910156 125.191406 L 70.441406 125.191406 C 69.992188 125.910156 69.71875 126.753906 69.71875 127.667969 L 69.71875 135.515625 Z M 124.957031 112.386719 L 56.675781 112.386719 L 56.675781 111.109375 L 124.957031 111.109375 Z M 56.035156 114.605469 L 125.59375 114.605469 L 126.824219 115.882812 L 54.804688 115.882812 Z M 126.824219 118.097656 L 125.59375 119.375 L 56.035156 119.375 L 54.804688 118.097656 Z M 56.648438 121.589844 L 124.980469 121.589844 L 124.980469 122.972656 L 56.648438 122.972656 Z M 60.382812 127.667969 C 60.382812 126.300781 61.492188 125.191406 62.953125 125.191406 C 64.316406 125.191406 65.425781 126.300781 65.425781 127.667969 L 65.425781 135.515625 L 60.382812 135.515625 Z M 71.929688 127.667969 C 71.929688 126.300781 73.039062 125.191406 74.496094 125.191406 C 75.859375 125.191406 76.96875 126.300781 76.96875 127.667969 L 76.96875 135.515625 L 71.929688 135.515625 Z M 82.695312 127.667969 C 82.695312 126.300781 83.804688 125.191406 85.261719 125.191406 C 86.625 125.191406 87.734375 126.300781 87.734375 127.667969 L 87.734375 135.515625 L 82.691406 135.515625 L 82.691406 127.667969 Z M 93.898438 127.667969 C 93.898438 126.300781 95.007812 125.191406 96.464844 125.191406 C 97.828125 125.191406 98.9375 126.300781 98.9375 127.667969 L 98.9375 135.515625 L 93.898438 135.515625 Z M 104.660156 127.667969 C 104.660156 126.300781 105.769531 125.191406 107.226562 125.191406 C 108.59375 125.191406 109.703125 126.300781 109.703125 127.667969 L 109.703125 135.515625 L 104.660156 135.515625 Z M 116.207031 127.667969 C 116.207031 126.300781 117.316406 125.191406 118.773438 125.191406 C 120.136719 125.191406 121.246094 126.300781 121.246094 127.667969 L 121.246094 135.515625 L 116.207031 135.515625 Z M 122.730469 125.1875 L 124.980469 125.1875 L 124.980469 135.515625 L 123.457031 135.515625 L 123.457031 127.667969 C 123.457031 126.753906 123.1875 125.910156 122.730469 125.1875 Z M 120.523438 105.398438 L 119.160156 105.398438 L 119.160156 96.683594 L 120.523438 96.683594 Z M 110.707031 105.398438 L 110.707031 96.019531 L 113.828125 92.765625 L 116.949219 96.019531 L 116.949219 105.398438 Z M 107.132812 105.398438 L 107.132812 96.683594 L 108.496094 96.683594 L 108.496094 105.398438 Z M 99.722656 105.398438 L 99.722656 96.683594 L 100.261719 96.683594 C 100.871094 96.683594 101.367188 96.1875 101.367188 95.574219 L 101.367188 94.476562 L 103.277344 94.476562 L 103.277344 95.574219 C 103.277344 96.1875 103.769531 96.683594 104.382812 96.683594 L 104.917969 96.683594 L 104.917969 105.398438 Z M 96.148438 105.398438 L 96.148438 96.683594 L 97.511719 96.683594 L 97.511719 105.398438 Z M 87.695312 105.398438 L 87.695312 96.019531 L 90.816406 92.765625 L 93.9375 96.019531 L 93.9375 105.398438 Z M 84.121094 105.398438 L 84.121094 96.683594 L 85.480469 96.683594 L 85.480469 105.398438 Z M 76.710938 105.398438 L 76.710938 96.683594 L 77.25 96.683594 C 77.859375 96.683594 78.355469 96.1875 78.355469 95.574219 L 78.355469 94.476562 L 80.265625 94.476562 L 80.265625 95.574219 C 80.265625 96.1875 80.757812 96.683594 81.371094 96.683594 L 81.910156 96.683594 L 81.910156 105.398438 Z M 73.136719 105.398438 L 73.136719 96.683594 L 74.5 96.683594 L 74.5 105.398438 Z M 64.683594 105.398438 L 64.683594 96.019531 L 67.804688 92.765625 L 70.925781 96.019531 L 70.925781 105.398438 Z M 77.535156 65.796875 L 75.800781 67.605469 L 72.613281 67.605469 L 72.613281 65.796875 Z M 83.316406 41.457031 L 98.316406 41.457031 C 102.21875 45.152344 104.265625 49.75 104.523438 55.4375 C 104.464844 55.371094 104.414062 55.296875 104.382812 55.199219 C 103.609375 52.714844 102.386719 52.195312 101.5 52.195312 C 100.839844 52.195312 99.613281 52.46875 98.816406 54.292969 C 98.707031 54.535156 98.476562 54.726562 98.183594 54.816406 C 97.8125 54.925781 97.472656 55.082031 97.171875 55.28125 L 84.460938 55.28125 C 84.15625 55.082031 83.820312 54.925781 83.449219 54.816406 C 83.152344 54.726562 82.921875 54.535156 82.816406 54.292969 C 82.019531 52.46875 80.792969 52.195312 80.132812 52.195312 C 79.242188 52.195312 78.023438 52.714844 77.246094 55.199219 C 77.21875 55.296875 77.164062 55.371094 77.105469 55.4375 C 77.363281 49.75 79.414062 45.152344 83.316406 41.457031 Z M 97.667969 37.757812 L 97.667969 39.238281 L 83.960938 39.238281 L 83.960938 37.757812 Z M 109.019531 65.796875 L 109.019531 67.605469 L 105.832031 67.605469 L 104.097656 65.796875 Z M 109.128906 94.46875 L 105.488281 94.46875 L 105.488281 92.273438 L 111.234375 92.273438 Z M 104.382812 90.058594 C 103.769531 90.058594 103.277344 90.554688 103.277344 91.164062 L 103.277344 92.261719 L 101.367188 92.261719 L 101.367188 91.164062 C 101.367188 90.554688 100.871094 90.058594 100.261719 90.058594 L 99.671875 90.058594 C 99.65625 89.707031 99.625 89.320312 99.570312 88.902344 L 105.070312 88.902344 C 105.015625 89.320312 104.988281 89.707031 104.972656 90.058594 Z M 95.515625 94.46875 L 93.410156 92.273438 L 99.15625 92.273438 L 99.15625 94.46875 Z M 86.117188 94.46875 L 82.476562 94.46875 L 82.476562 92.273438 L 88.222656 92.273438 Z M 84.914062 88.261719 L 90.238281 88.261719 C 90.851562 88.261719 91.34375 87.769531 91.34375 87.15625 C 91.34375 86.542969 90.851562 86.046875 90.238281 86.046875 L 86.625 86.046875 C 86.910156 85.574219 87.097656 85.039062 87.140625 84.46875 C 87.167969 84.0625 87.269531 83.882812 87.308594 83.828125 C 87.34375 83.777344 87.460938 83.65625 87.785156 83.539062 C 88.808594 83.183594 89.566406 82.425781 89.867188 81.46875 C 90.296875 80.09375 90.746094 79.804688 90.816406 79.804688 C 91.195312 79.804688 91.515625 80.4375 91.632812 80.707031 C 91.949219 81.425781 92.523438 81.996094 93.246094 82.347656 L 92.046875 82.347656 C 91.4375 82.347656 90.941406 82.84375 90.941406 83.457031 C 90.941406 84.066406 91.4375 84.5625 92.046875 84.5625 L 94.828125 84.5625 C 94.828125 84.574219 94.832031 84.589844 94.835938 84.601562 C 94.953125 85.570312 95.484375 86.464844 96.34375 87.007812 C 96.53125 87.125 96.703125 87.277344 96.851562 87.464844 C 97.210938 87.90625 97.394531 89.042969 97.453125 90.058594 L 84.847656 90.058594 C 84.8125 89.414062 84.824219 88.734375 84.914062 88.261719 Z M 85.097656 77.589844 L 85.097656 69.820312 L 86.5 69.820312 L 86.5 77.589844 Z M 77.378906 77.589844 L 77.378906 69.160156 L 80.132812 66.285156 L 82.882812 69.160156 L 82.882812 77.589844 Z M 88.710938 69.820312 L 88.753906 69.820312 C 89.367188 69.820312 89.859375 69.324219 89.859375 68.714844 L 89.859375 67.808594 L 91.769531 67.808594 L 91.769531 68.714844 C 91.769531 69.324219 92.265625 69.820312 92.875 69.820312 L 92.921875 69.820312 L 92.921875 77.589844 L 88.710938 77.589844 Z M 96.535156 69.820312 L 96.535156 77.589844 L 95.132812 77.589844 L 95.132812 69.820312 Z M 104.253906 77.589844 L 98.746094 77.589844 L 98.746094 69.160156 L 101.5 66.285156 L 104.253906 69.160156 Z M 106.074219 86.070312 C 105.925781 86.253906 105.792969 86.460938 105.683594 86.6875 L 98.960938 86.6875 C 98.847656 86.460938 98.71875 86.253906 98.570312 86.066406 C 98.398438 85.855469 98.207031 85.667969 98.003906 85.496094 L 106.640625 85.496094 C 106.4375 85.667969 106.246094 85.855469 106.074219 86.070312 Z M 108.285156 81.746094 C 107.964844 82.167969 107.769531 82.6875 107.6875 83.28125 L 96.953125 83.28125 C 96.871094 82.6875 96.679688 82.167969 96.355469 81.746094 C 95.894531 81.140625 95.222656 80.691406 94.421875 80.453125 C 94.066406 80.347656 93.789062 80.117188 93.660156 79.820312 C 93.65625 79.8125 93.652344 79.808594 93.652344 79.804688 L 110.992188 79.804688 C 110.988281 79.8125 110.988281 79.816406 110.984375 79.820312 C 110.855469 80.117188 110.574219 80.347656 110.222656 80.453125 C 109.421875 80.691406 108.75 81.140625 108.285156 81.746094 Z M 106.464844 77.589844 L 106.464844 69.820312 L 107.9375 69.820312 L 107.9375 77.589844 Z M 97.167969 67.605469 L 93.984375 67.605469 L 93.984375 65.796875 L 98.90625 65.796875 Z M 95.796875 57.5 C 95.761719 57.753906 95.746094 58.023438 95.757812 58.3125 C 95.777344 58.613281 95.605469 58.921875 95.324219 59.097656 C 95.113281 59.230469 94.917969 59.390625 94.734375 59.5625 L 86.898438 59.5625 C 86.710938 59.390625 86.515625 59.230469 86.304688 59.097656 C 86.027344 58.921875 85.855469 58.613281 85.871094 58.308594 C 85.886719 58.019531 85.867188 57.753906 85.835938 57.5 Z M 88.066406 61.78125 L 93.5625 61.78125 C 93.417969 62.410156 93.351562 63.046875 93.324219 63.582031 L 92.875 63.582031 C 92.265625 63.582031 91.769531 64.078125 91.769531 64.6875 L 91.769531 65.59375 L 89.859375 65.59375 L 89.859375 64.6875 C 89.859375 64.078125 89.367188 63.582031 88.753906 63.582031 L 88.308594 63.582031 C 88.28125 63.046875 88.214844 62.410156 88.066406 61.78125 Z M 87.648438 65.796875 L 87.648438 67.605469 L 84.460938 67.605469 L 82.726562 65.796875 Z M 73.691406 69.820312 L 75.164062 69.820312 L 75.164062 77.589844 L 73.691406 77.589844 Z M 88.140625 79.804688 C 88.003906 80.101562 87.875 80.425781 87.757812 80.804688 C 87.667969 81.089844 87.410156 81.324219 87.054688 81.449219 C 86.378906 81.683594 85.863281 82.050781 85.515625 82.53125 C 85.355469 82.75 85.234375 83.003906 85.140625 83.28125 L 73.941406 83.28125 C 73.859375 82.6875 73.667969 82.167969 73.34375 81.746094 C 72.878906 81.140625 72.210938 80.691406 71.410156 80.453125 C 71.054688 80.347656 70.777344 80.117188 70.648438 79.820312 C 70.648438 79.8125 70.644531 79.808594 70.640625 79.804688 Z M 84.191406 85.496094 C 83.875 85.769531 83.613281 86.058594 83.390625 86.367188 C 83.371094 86.386719 83.359375 86.414062 83.339844 86.4375 C 83.28125 86.519531 83.207031 86.601562 83.15625 86.6875 L 75.949219 86.6875 C 75.835938 86.460938 75.707031 86.253906 75.558594 86.070312 C 75.386719 85.855469 75.195312 85.667969 74.992188 85.496094 Z M 76.5625 88.902344 L 82.632812 88.902344 C 82.613281 89.308594 82.613281 89.703125 82.632812 90.058594 L 81.371094 90.058594 C 80.757812 90.058594 80.265625 90.554688 80.265625 91.164062 L 80.265625 92.261719 L 78.355469 92.261719 L 78.355469 91.164062 C 78.355469 90.554688 77.859375 90.058594 77.25 90.058594 L 76.660156 90.058594 C 76.644531 89.707031 76.617188 89.316406 76.5625 88.902344 Z M 76.144531 92.273438 L 76.144531 94.46875 L 72.503906 94.46875 L 70.398438 92.273438 Z M 122.167969 94.46875 L 118.527344 94.46875 L 116.421875 92.273438 L 122.167969 92.273438 Z M 116.859375 83.539062 C 117.085938 83.621094 117.261719 83.726562 117.335938 83.828125 C 117.375 83.886719 117.476562 84.0625 117.507812 84.46875 C 117.546875 85.039062 117.734375 85.574219 118.015625 86.046875 L 114.40625 86.046875 C 113.792969 86.046875 113.300781 86.542969 113.300781 87.15625 C 113.300781 87.769531 113.792969 88.261719 114.40625 88.261719 L 119.726562 88.261719 C 119.8125 88.722656 119.832031 89.386719 119.796875 90.058594 L 107.1875 90.058594 C 107.246094 89.042969 107.429688 87.910156 107.789062 87.464844 C 107.941406 87.277344 108.113281 87.125 108.300781 87.007812 C 109.160156 86.464844 109.691406 85.570312 109.808594 84.601562 C 109.820312 84.53125 109.851562 84.464844 109.851562 84.386719 C 109.851562 84.355469 109.835938 84.332031 109.832031 84.300781 C 109.835938 84.21875 109.855469 84.140625 109.855469 84.058594 C 109.832031 83.625 109.898438 83.28125 110.042969 83.09375 C 110.222656 82.855469 110.496094 82.679688 110.855469 82.574219 C 111.832031 82.28125 112.617188 81.601562 113.007812 80.710938 C 113.125 80.4375 113.445312 79.800781 113.828125 79.800781 C 113.9375 79.800781 114.382812 80.210938 114.773438 81.464844 C 115.074219 82.425781 115.832031 83.183594 116.859375 83.539062 Z M 111.777344 77.589844 L 110.152344 77.589844 L 110.152344 69.816406 C 110.699219 69.800781 111.128906 69.390625 111.199219 68.859375 L 111.773438 69.277344 L 111.773438 77.589844 Z M 95.542969 63.582031 C 95.601562 62.6875 95.769531 61.734375 96.0625 61.371094 C 96.195312 61.210938 96.34375 61.074219 96.503906 60.972656 C 97.464844 60.371094 98.027344 59.304688 97.96875 58.199219 C 97.949219 57.824219 98.003906 57.53125 98.121094 57.378906 C 98.273438 57.175781 98.507812 57.03125 98.8125 56.9375 C 99.734375 56.664062 100.472656 56.023438 100.839844 55.183594 C 101.003906 54.8125 101.261719 54.414062 101.484375 54.410156 C 101.5625 54.4375 101.929688 54.769531 102.273438 55.863281 C 102.554688 56.769531 103.269531 57.480469 104.234375 57.820312 C 104.457031 57.898438 104.582031 57.988281 104.625 58.046875 C 104.648438 58.082031 104.734375 58.226562 104.761719 58.585938 C 104.796875 59.058594 104.929688 59.515625 105.144531 59.921875 L 102.027344 59.921875 C 101.417969 59.921875 100.921875 60.417969 100.921875 61.03125 C 100.921875 61.640625 101.417969 62.136719 102.027344 62.136719 L 106.808594 62.136719 C 106.867188 62.519531 106.882812 63.050781 106.855469 63.582031 Z M 87.847656 29.621094 L 87.363281 27.941406 L 94.265625 27.941406 L 93.785156 29.621094 Z M 88.859375 22.246094 C 88.734375 21.753906 88.667969 21.28125 88.652344 20.828125 L 92.980469 20.828125 C 92.964844 21.28125 92.898438 21.753906 92.773438 22.246094 Z M 90.816406 16.363281 C 91.640625 17.035156 92.222656 17.785156 92.578125 18.609375 L 89.050781 18.609375 C 89.410156 17.785156 89.992188 17.035156 90.816406 16.363281 Z M 88.902344 24.460938 L 92.730469 24.460938 L 93.027344 25.726562 L 88.605469 25.726562 Z M 87.523438 31.835938 L 94.109375 31.835938 C 94.988281 32.886719 95.492188 34.09375 95.65625 35.542969 L 85.976562 35.542969 C 86.140625 34.09375 86.644531 32.886719 87.523438 31.835938 Z M 74.824219 62.136719 L 79.605469 62.136719 C 80.214844 62.136719 80.710938 61.640625 80.710938 61.027344 C 80.710938 60.417969 80.214844 59.917969 79.605469 59.917969 L 76.488281 59.917969 C 76.703125 59.511719 76.835938 59.058594 76.871094 58.582031 C 76.894531 58.222656 76.984375 58.078125 77.007812 58.042969 C 77.050781 57.984375 77.171875 57.894531 77.398438 57.816406 C 78.359375 57.480469 79.074219 56.765625 79.355469 55.863281 C 79.699219 54.769531 80.066406 54.4375 80.132812 54.410156 C 80.367188 54.410156 80.625 54.808594 80.789062 55.179688 C 81.160156 56.023438 81.898438 56.660156 82.820312 56.9375 C 83.125 57.027344 83.355469 57.175781 83.511719 57.375 C 83.628906 57.53125 83.683594 57.820312 83.664062 58.195312 C 83.605469 59.304688 84.167969 60.367188 85.128906 60.972656 C 85.289062 61.074219 85.4375 61.207031 85.566406 61.371094 C 85.871094 61.746094 86.03125 62.695312 86.089844 63.578125 L 74.773438 63.578125 C 74.75 63.046875 74.761719 62.515625 74.824219 62.136719 Z M 70.429688 68.859375 C 70.503906 69.390625 70.933594 69.800781 71.480469 69.816406 L 71.480469 77.589844 L 69.855469 77.589844 L 69.855469 69.277344 Z M 61.90625 88.261719 L 67.226562 88.261719 C 67.839844 88.261719 68.332031 87.769531 68.332031 87.15625 C 68.332031 86.542969 67.839844 86.046875 67.226562 86.046875 L 63.613281 86.046875 C 63.898438 85.574219 64.085938 85.039062 64.125 84.46875 C 64.15625 84.0625 64.253906 83.886719 64.300781 83.824219 C 64.371094 83.726562 64.546875 83.621094 64.773438 83.539062 C 65.800781 83.183594 66.558594 82.425781 66.855469 81.46875 C 67.25 80.214844 67.695312 79.804688 67.804688 79.804688 C 68.183594 79.804688 68.503906 80.4375 68.621094 80.710938 C 69.015625 81.601562 69.796875 82.28125 70.777344 82.574219 C 71.132812 82.683594 71.40625 82.855469 71.585938 83.09375 C 71.730469 83.28125 71.796875 83.625 71.777344 84.058594 C 71.773438 84.140625 71.796875 84.21875 71.796875 84.300781 C 71.796875 84.332031 71.78125 84.355469 71.78125 84.386719 C 71.78125 84.464844 71.808594 84.53125 71.824219 84.601562 C 71.941406 85.570312 72.472656 86.464844 73.332031 87.007812 C 73.519531 87.125 73.6875 87.277344 73.839844 87.464844 C 74.199219 87.90625 74.382812 89.042969 74.441406 90.058594 L 61.832031 90.058594 C 61.796875 89.386719 61.816406 88.71875 61.90625 88.261719 Z M 59.464844 92.273438 L 65.210938 92.273438 L 63.105469 94.46875 L 59.464844 94.46875 Z M 61.109375 96.683594 L 62.46875 96.683594 L 62.46875 105.398438 L 61.109375 105.398438 Z M 124.957031 107.613281 L 124.957031 108.894531 L 56.675781 108.894531 L 56.675781 107.613281 Z M 56.648438 125.1875 L 58.894531 125.1875 C 58.445312 125.910156 58.171875 126.753906 58.171875 127.667969 L 58.171875 135.515625 L 56.648438 135.515625 Z M 53.207031 137.730469 L 128.429688 137.730469 L 128.429688 139.570312 L 53.207031 139.570312 Z M 50.425781 141.828125 L 131.207031 141.828125 L 131.207031 145.0625 L 50.425781 145.0625 Z M 136.6875 151.226562 L 44.945312 151.226562 L 44.945312 147.277344 L 136.6875 147.277344 Z M 136.6875 151.226562 " fill-opacity="1" fill-rule="nonzero"/></g><g clip-path="url(#f7b5590a98)"><g clip-path="url(#55c2e31a8a)"><path stroke-linecap="butt" transform="matrix(0.746926, 0, 0, 0.746926, 0, 0.000010459)" fill="none" stroke-linejoin="miter" d="M 121.497947 -0.0000140027 C 54.394807 -0.0000140027 0 54.394793 0 121.497933 C 0 188.601074 54.394807 243.001111 121.497947 243.001111 C 188.601088 243.001111 243.001125 188.601074 243.001125 121.497933 C 243.001125 54.394793 188.601088 -0.0000140027 121.497947 -0.0000140027 Z M 121.497947 -0.0000140027 " stroke="#000000" stroke-width="8" stroke-opacity="1" stroke-miterlimit="4"/></g></g></svg>